<svg width="40" height="40" viewBox="0 0 40 40" fill="none" xmlns="http://www.w3.org/2000/svg">
<rect x="0.611145" y="0.222229" width="39.1111" height="39.1111" rx="19.5556" fill="#17B26A"/>
<path d="M20.1667 27.1111C21.6794 27.1111 23.1302 26.5102 24.1998 25.4406C25.2695 24.3709 25.8704 22.9202 25.8704 21.4074C25.8704 19.8947 25.2695 18.444 24.1998 17.3743C23.1302 16.3047 21.6794 15.7037 20.1667 15.7037C18.654 15.7037 17.2032 16.3047 16.1336 17.3743C15.0639 18.444 14.463 19.8947 14.463 21.4074C14.463 22.9202 15.0639 24.3709 16.1336 25.4406C17.2032 26.5102 18.654 27.1111 20.1667 27.1111Z" stroke="white" stroke-width="1.83333" stroke-linecap="round" stroke-linejoin="round"/>
<path d="M20.1667 18.963V14.0741C20.1667 13.6419 20.3384 13.2274 20.644 12.9218C20.9496 12.6162 21.3641 12.4445 21.7963 12.4445H23.4259" stroke="white" stroke-width="1.83333" stroke-linecap="round" stroke-linejoin="round"/>
<path d="M18.5371 18.5555C19.6232 19.099 20.7102 19.099 21.7963 18.5555" stroke="white" stroke-width="1.83333" stroke-linecap="round" stroke-linejoin="round"/>
<path d="M23.4259 12.4445V13.2593C23.4259 13.6915 23.2543 14.106 22.9486 14.4116C22.643 14.7172 22.2285 14.8889 21.7963 14.8889H20.1667" stroke="white" stroke-width="1.83333" stroke-linecap="round" stroke-linejoin="round"/>
</svg>
