<svg width="40" height="40" viewBox="0 0 40 40" fill="none" xmlns="http://www.w3.org/2000/svg">
<rect x="0.611115" y="0.888916" width="39.1111" height="39.1111" rx="19.5556" fill="#9E77ED"/>
<path d="M14.463 20.4445H12.8333L20.1667 13.1111L27.5 20.4445H25.8704" stroke="white" stroke-width="1.83333" stroke-linecap="round" stroke-linejoin="round"/>
<path d="M14.463 20.4445V26.1482C14.463 26.5804 14.6346 26.9949 14.9403 27.3005C15.2459 27.6061 15.6604 27.7778 16.0926 27.7778H24.2407C24.6729 27.7778 25.0874 27.6061 25.3931 27.3005C25.6987 26.9949 25.8704 26.5804 25.8704 26.1482V20.4445" stroke="white" stroke-width="1.83333" stroke-linecap="round" stroke-linejoin="round"/>
<path d="M17.7222 27.7778V22.8889C17.7222 22.4567 17.8939 22.0422 18.1995 21.7366C18.5052 21.431 18.9197 21.2593 19.3519 21.2593H20.9815C21.4137 21.2593 21.8282 21.431 22.1338 21.7366C22.4394 22.0422 22.6111 22.4567 22.6111 22.8889V27.7778" stroke="white" stroke-width="1.83333" stroke-linecap="round" stroke-linejoin="round"/>
</svg>
