<svg width="30" height="30" viewBox="0 0 30 30" fill="none" xmlns="http://www.w3.org/2000/svg">
<path d="M14.8333 2.38892C7.75492 2.38892 1.99997 8.14386 1.99997 15.2222C1.99997 22.3006 7.75492 28.0556 14.8333 28.0556C21.9117 28.0556 27.6666 22.3006 27.6666 15.2222C27.6666 8.14386 21.9117 2.38892 14.8333 2.38892Z" fill="#333333"/>
<path fill-rule="evenodd" clip-rule="evenodd" d="M19.2424 17.0904C19.2047 17.0363 19.1667 16.9834 19.129 16.9308C18.822 16.5029 18.5295 16.0951 18.5295 15.2775V12.2299C18.5295 12.1239 18.5301 12.0187 18.5307 11.9143C18.5373 10.7458 18.5434 9.6795 17.7007 8.8638C16.978 8.14317 15.7776 7.88892 14.8595 7.88892C13.0639 7.88892 11.0609 8.58339 10.6408 10.8847C10.5963 11.1291 10.7676 11.2571 10.9228 11.293L12.7511 11.4982C12.9223 11.4892 13.046 11.3147 13.0791 11.1389C13.2359 10.3459 13.8763 9.96497 14.5958 9.96497C14.9839 9.96497 15.4246 10.1121 15.6543 10.4731C15.8911 10.8329 15.8874 11.3135 15.884 11.7432C15.8836 11.7933 15.8832 11.8426 15.8832 11.891V12.1465C15.7136 12.1661 15.5358 12.1848 15.3527 12.204C14.3556 12.3085 13.2003 12.4296 12.335 12.823C11.1537 13.3535 10.3241 14.4331 10.3241 16.0198C10.3241 18.0534 11.5585 19.07 13.1478 19.07C14.489 19.07 15.223 18.7417 16.2577 17.6479C16.3094 17.7256 16.3558 17.7972 16.3996 17.8647C16.6464 18.2452 16.8075 18.4936 17.3392 18.9522C17.4796 19.0299 17.6653 19.027 17.7896 18.9101C18.1664 18.5627 18.8505 17.9463 19.2362 17.6111C19.3902 17.4799 19.3629 17.2678 19.2424 17.0904ZM15.5303 16.2116C15.2308 16.7634 14.7538 17.101 14.2238 17.101C13.5011 17.101 13.0768 16.5287 13.0768 15.6822C13.0768 14.0157 14.519 13.7132 15.8829 13.7132C15.8829 13.813 15.8838 13.9132 15.8847 14.0137C15.8913 14.7681 15.8982 15.5375 15.5303 16.2116Z" fill="white"/>
<path d="M21.4973 20.416C19.6913 21.8125 17.0722 22.5556 14.8166 22.5556C11.6566 22.5556 8.81012 21.3314 6.65625 19.2934C6.4873 19.1331 6.6381 18.9143 6.84107 19.0387C9.16524 20.4561 12.0389 21.3094 15.0069 21.3094C17.0093 21.3094 19.21 20.8743 21.2349 19.9735C21.5404 19.8381 21.7964 20.185 21.4973 20.416Z" fill="white"/>
<path d="M20.1399 19.4433C20.7214 19.3696 22.018 19.2067 22.2489 19.5164C22.48 19.8258 21.9946 21.098 21.7758 21.6714L21.7742 21.6756C21.7083 21.8485 21.8499 21.9175 21.999 21.7865C22.9682 20.9373 23.2187 19.1573 23.0201 18.8994C22.823 18.645 21.1287 18.4247 20.0948 19.1858C19.9359 19.3039 19.963 19.4648 20.1399 19.4433Z" fill="white"/>
</svg>
