<svg width="38" height="32" viewBox="0 0 38 32" fill="none" xmlns="http://www.w3.org/2000/svg">
<path d="M29.0683 3.99521L25.4193 2.35244C22.2162 0.910384 20.6146 0.18935 18.8917 0.18935C17.1688 0.18935 15.5672 0.910384 12.3641 2.35244L11.7771 2.61669L28.0574 10.5975L35.3859 7.45403C34.2069 6.30856 32.3047 5.45215 29.0683 3.99521Z" fill="#204182"/>
<path d="M36.6776 9.52481L29.3824 12.654V17.4067C29.3824 18.055 28.7697 18.5806 28.014 18.5806C27.2583 18.5806 26.6456 18.055 26.6456 17.4067V13.8278L20.2598 16.567V31.3434C21.5696 31.0636 23.06 30.3926 25.419 29.3306L29.068 27.6879C32.9938 25.9204 34.9567 25.0369 36.0466 23.4489C37.1366 21.861 37.1366 19.8849 37.1366 15.9331V15.7499C37.1366 12.7876 37.1366 10.9354 36.6776 9.52481Z" fill="#204182"/>
<path d="M17.5232 31.3434V16.567L1.10549 9.52481C0.646362 10.9354 0.646362 12.7876 0.646362 15.7499V15.9331C0.646362 19.8849 0.646362 21.861 1.73633 23.4489C2.82628 25.0369 4.78916 25.9204 8.71492 27.6879L12.364 29.3306C14.723 30.3926 16.2134 31.0636 17.5232 31.3434Z" fill="#204182"/>
<path d="M2.39722 7.45413L18.8915 14.5292L25.1153 11.8596L8.90141 3.9113L8.71481 3.99531C5.47858 5.45225 3.57624 6.30866 2.39722 7.45413Z" fill="#204182"/>
</svg>
