<svg width="30" height="31" viewBox="0 0 30 31" fill="none" xmlns="http://www.w3.org/2000/svg">
<path d="M22.3889 7H7.72228C7.07397 7 6.45222 7.25754 5.99379 7.71596C5.53537 8.17438 5.27783 8.79614 5.27783 9.44444V24.1111C5.27783 24.7594 5.53537 25.3812 5.99379 25.8396C6.45222 26.298 7.07397 26.5556 7.72228 26.5556H22.3889C23.0372 26.5556 23.659 26.298 24.1174 25.8396C24.5758 25.3812 24.8334 24.7594 24.8334 24.1111V9.44444C24.8334 8.79614 24.5758 8.17438 24.1174 7.71596C23.659 7.25754 23.0372 7 22.3889 7Z" stroke="#22292F" stroke-width="1.83333" stroke-linecap="round" stroke-linejoin="round"/>
<path d="M19.9445 4.55556V9.44445" stroke="#22292F" stroke-width="1.83333" stroke-linecap="round" stroke-linejoin="round"/>
<path d="M10.1667 4.55556V9.44445" stroke="#22292F" stroke-width="1.83333" stroke-linecap="round" stroke-linejoin="round"/>
<path d="M5.27783 14.3333H24.8334" stroke="#22292F" stroke-width="1.83333" stroke-linecap="round" stroke-linejoin="round"/>
<path d="M13.8334 19.2222H15.0556" stroke="#22292F" stroke-width="1.83333" stroke-linecap="round" stroke-linejoin="round"/>
<path d="M15.0556 19.2222V22.8889" stroke="#22292F" stroke-width="1.83333" stroke-linecap="round" stroke-linejoin="round"/>
</svg>
