<svg width="40" height="40" viewBox="0 0 40 40" fill="none" xmlns="http://www.w3.org/2000/svg">
<rect x="0.611145" y="0.666687" width="39.1111" height="39.1111" rx="19.5556" fill="#4E5BA6"/>
<path d="M16.0927 18.5926L20.1667 13.7037L24.2408 18.5926" stroke="white" stroke-width="1.83333" stroke-linecap="round" stroke-linejoin="round"/>
<path d="M27.5 18.5927L25.8704 25.1112C25.7946 25.5781 25.5893 25.9969 25.2919 26.2951C24.9937 26.5925 24.6221 26.7506 24.2408 26.7408H16.0926C15.7113 26.7506 15.3397 26.5925 15.0415 26.2951C14.7441 25.9969 14.5388 25.5781 14.463 25.1112L12.8334 18.5927H27.5Z" stroke="white" stroke-width="1.83333" stroke-linecap="round" stroke-linejoin="round"/>
<path d="M20.1667 24.2963C20.5989 24.2963 21.0134 24.1246 21.319 23.819C21.6246 23.5134 21.7963 23.0989 21.7963 22.6667C21.7963 22.2345 21.6246 21.82 21.319 21.5144C21.0134 21.2087 20.5989 21.037 20.1667 21.037C19.7345 21.037 19.32 21.2087 19.0144 21.5144C18.7088 21.82 18.5371 22.2345 18.5371 22.6667C18.5371 23.0989 18.7088 23.5134 19.0144 23.819C19.32 24.1246 19.7345 24.2963 20.1667 24.2963Z" stroke="white" stroke-width="1.83333" stroke-linecap="round" stroke-linejoin="round"/>
</svg>
