<svg width="31" height="30" viewBox="0 0 31 30" fill="none" xmlns="http://www.w3.org/2000/svg">
<g clip-path="url(#clip0_1_84)">
<path d="M10.3416 5.60964C10.8622 3.46341 13.9153 3.46341 14.436 5.60964C14.5141 5.93206 14.6673 6.23148 14.883 6.48352C15.0987 6.73557 15.3709 6.93312 15.6774 7.0601C15.9839 7.18708 16.316 7.2399 16.6468 7.21425C16.9775 7.18861 17.2975 7.08523 17.5808 6.91252C19.4667 5.76364 21.6263 7.92208 20.4775 9.80919C20.305 10.0923 20.2018 10.4122 20.1762 10.7427C20.1506 11.0732 20.2034 11.4051 20.3302 11.7114C20.457 12.0177 20.6544 12.2898 20.9061 12.5055C21.1579 12.7212 21.457 12.8744 21.7791 12.9527C23.9253 13.4734 23.9253 16.5265 21.7791 17.0472C21.4567 17.1253 21.1573 17.2785 20.9052 17.4942C20.6532 17.7099 20.4556 17.9821 20.3287 18.2885C20.2017 18.595 20.1489 18.9272 20.1745 19.2579C20.2002 19.5887 20.3035 19.9087 20.4762 20.192C21.6251 22.0779 19.4667 24.2375 17.5796 23.0886C17.2964 22.9162 16.9766 22.813 16.6461 22.7874C16.3155 22.7618 15.9836 22.8146 15.6773 22.9414C15.371 23.0682 15.099 23.2655 14.8833 23.5173C14.6676 23.7691 14.5144 24.0682 14.436 24.3903C13.9153 26.5365 10.8622 26.5365 10.3416 24.3903C10.2637 24.0677 10.1107 23.7681 9.895 23.5159C9.67933 23.2637 9.40712 23.0661 9.10055 22.939C8.79397 22.812 8.46173 22.7593 8.13089 22.7851C7.80005 22.8108 7.47999 22.9144 7.19679 23.0874C5.3109 24.2363 3.15124 22.0779 4.30013 20.1907C4.47258 19.9076 4.5758 19.5878 4.60139 19.2572C4.62697 18.9267 4.5742 18.5948 4.44737 18.2885C4.32054 17.9822 4.12322 17.7102 3.87146 17.4945C3.6197 17.2788 3.32059 17.1255 2.99846 17.0472C0.852238 16.5265 0.852238 13.4734 2.99846 12.9527C3.32088 12.8746 3.6203 12.7215 3.87235 12.5058C4.1244 12.2901 4.32195 12.0179 4.44893 11.7114C4.57591 11.4049 4.62872 11.0728 4.60308 10.742C4.57743 10.4113 4.47405 10.0912 4.30135 9.80797C3.15246 7.92208 5.3109 5.76241 7.19802 6.9113C8.42024 7.65441 10.0042 6.99686 10.3416 5.60964Z" stroke="#516778" stroke-width="1.83333" stroke-linecap="round" stroke-linejoin="round"/>
<path d="M12.389 18.6667C13.3614 18.6667 14.294 18.2804 14.9817 17.5927C15.6693 16.9051 16.0556 15.9725 16.0556 15C16.0556 14.0275 15.6693 13.0949 14.9817 12.4073C14.294 11.7197 13.3614 11.3333 12.389 11.3333C11.4165 11.3333 10.4839 11.7197 9.79623 12.4073C9.1086 13.0949 8.72229 14.0275 8.72229 15C8.72229 15.9725 9.1086 16.9051 9.79623 17.5927C10.4839 18.2804 11.4165 18.6667 12.389 18.6667Z" stroke="#516778" stroke-width="1.83333" stroke-linecap="round" stroke-linejoin="round"/>
</g>
<defs>
<clipPath id="clip0_1_84">
<rect width="29.3333" height="29.3333" fill="white" transform="translate(0.72229 0.333344)"/>
</clipPath>
</defs>
</svg>
