<svg width="26" height="26" viewBox="0 0 26 26" fill="none" xmlns="http://www.w3.org/2000/svg">
<path d="M13.0556 13.9074C13.3258 13.9074 13.5848 13.8001 13.7758 13.6091C13.9668 13.4181 14.0741 13.159 14.0741 12.8889C14.0741 12.6188 13.9668 12.3597 13.7758 12.1687C13.5848 11.9777 13.3258 11.8704 13.0556 11.8704C12.7855 11.8704 12.5264 11.9777 12.3354 12.1687C12.1444 12.3597 12.0371 12.6188 12.0371 12.8889C12.0371 13.159 12.1444 13.4181 12.3354 13.6091C12.5264 13.8001 12.7855 13.9074 13.0556 13.9074Z" stroke="#516778" stroke-width="1.52778" stroke-linecap="round" stroke-linejoin="round"/>
<path d="M13.0556 21.037C13.3258 21.037 13.5848 20.9297 13.7758 20.7387C13.9668 20.5477 14.0741 20.2886 14.0741 20.0185C14.0741 19.7484 13.9668 19.4893 13.7758 19.2983C13.5848 19.1073 13.3258 19 13.0556 19C12.7855 19 12.5264 19.1073 12.3354 19.2983C12.1444 19.4893 12.0371 19.7484 12.0371 20.0185C12.0371 20.2886 12.1444 20.5477 12.3354 20.7387C12.5264 20.9297 12.7855 21.037 13.0556 21.037Z" stroke="#516778" stroke-width="1.52778" stroke-linecap="round" stroke-linejoin="round"/>
<path d="M13.0556 6.77776C13.3258 6.77776 13.5848 6.67045 13.7758 6.47944C13.9668 6.28843 14.0741 6.02937 14.0741 5.75924C14.0741 5.48911 13.9668 5.23005 13.7758 5.03904C13.5848 4.84803 13.3258 4.74072 13.0556 4.74072C12.7855 4.74072 12.5264 4.84803 12.3354 5.03904C12.1444 5.23005 12.0371 5.48911 12.0371 5.75924C12.0371 6.02937 12.1444 6.28843 12.3354 6.47944C12.5264 6.67045 12.7855 6.77776 13.0556 6.77776Z" stroke="#516778" stroke-width="1.52778" stroke-linecap="round" stroke-linejoin="round"/>
</svg>
