<svg width="30" height="30" viewBox="0 0 30 30" fill="none" xmlns="http://www.w3.org/2000/svg">
<path d="M15.1667 25.8889C16.6112 25.8889 18.0416 25.6043 19.3762 25.0515C20.7108 24.4987 21.9234 23.6885 22.9448 22.667C23.9663 21.6456 24.7765 20.433 25.3293 19.0984C25.8821 17.7638 26.1667 16.3334 26.1667 14.8889C26.1667 13.4443 25.8821 12.0139 25.3293 10.6793C24.7765 9.34476 23.9663 8.13213 22.9448 7.11069C21.9234 6.08924 20.7108 5.27899 19.3762 4.72619C18.0416 4.17339 16.6112 3.88886 15.1667 3.88886C12.2493 3.88886 9.45138 5.04779 7.38848 7.11069C5.32558 9.17359 4.16666 11.9715 4.16666 14.8889C4.16666 17.8062 5.32558 20.6041 7.38848 22.667C9.45138 24.7299 12.2493 25.8889 15.1667 25.8889Z" stroke="#0B9055" stroke-width="2.44444" stroke-linecap="round" stroke-linejoin="round"/>
<path d="M11.5 14.8889H18.8333" stroke="#0B9055" stroke-width="2.44444" stroke-linecap="round" stroke-linejoin="round"/>
<path d="M15.1667 11.2222V18.5555" stroke="#0B9055" stroke-width="2.44444" stroke-linecap="round" stroke-linejoin="round"/>
</svg>
