<svg width="39" height="34" viewBox="0 0 39 34" fill="none" xmlns="http://www.w3.org/2000/svg">
<path d="M15.7727 14.6595C15.7727 15.5089 16.0477 15.6347 16.6711 15.8234L17.6062 16.1066V13.4326H17.0561C16.3594 13.4326 15.7727 13.9831 15.7727 14.6595Z" fill="#204182"/>
<path d="M20.356 22.085H20.9061C21.6211 22.085 22.1895 21.5345 22.1895 20.8582C22.1895 20.0088 21.9145 19.883 21.2911 19.6942L20.356 19.4111V22.085Z" fill="#204182"/>
<path d="M32.8789 7.50287L29.1202 10.7273C28.8452 10.9632 28.4969 11.0734 28.1485 11.0734C27.8001 11.0734 27.4518 10.9632 27.1768 10.7273C26.645 10.2712 26.645 9.51618 27.1768 9.06004L30.9354 5.8356C27.7085 3.47625 23.5465 2.02918 18.9811 2.02918C8.86033 2.02918 0.646362 9.07577 0.646362 17.7582C0.646362 26.4406 8.86033 33.4872 18.9811 33.4872C29.1019 33.4872 37.3159 26.4406 37.3159 17.7582C37.3159 13.8417 35.6291 10.2712 32.8789 7.50287ZM22.1897 17.475C23.3631 17.8368 24.9399 18.5604 24.9399 20.8725C24.9399 22.8386 23.1248 24.4587 20.9063 24.4587H20.3562V24.8519C20.3562 25.4968 19.7328 26.0316 18.9811 26.0316C18.2294 26.0316 17.606 25.4968 17.606 24.8519V24.4587H17.4593C15.0208 24.4587 13.0223 22.6971 13.0223 20.5265C13.0223 19.8659 13.6457 19.3311 14.3974 19.3311C15.1492 19.3311 15.7725 19.8659 15.7725 20.5107C15.7725 21.3758 16.5243 22.0836 17.4593 22.0836H17.606V18.5918L15.7725 18.0413C14.5991 17.6795 13.0223 16.956 13.0223 14.6438C13.0223 12.6777 14.8375 11.0576 17.056 11.0576H17.606V10.6801C17.606 10.0352 18.2294 9.50045 18.9811 9.50045C19.7328 9.50045 20.3562 10.0352 20.3562 10.6801V11.0734H20.5029C22.9414 11.0734 24.9399 12.835 24.9399 15.0056C24.9399 15.6505 24.3165 16.1853 23.5648 16.1853C22.8131 16.1853 22.1897 15.6505 22.1897 15.0056C22.1897 14.1405 21.438 13.4327 20.5029 13.4327H20.3562V16.9245L22.1897 17.475Z" fill="#204182"/>
<path d="M38.5806 1.57315C38.4339 1.29003 38.1773 1.05409 37.8289 0.928262C37.6639 0.881075 37.4989 0.849617 37.3155 0.849617H29.9816C29.2299 0.849617 28.6065 1.3844 28.6065 2.02929C28.6065 2.67418 29.2299 3.20897 29.9816 3.20897H33.9969L30.935 5.83571C31.6317 6.35476 32.2735 6.90528 32.8785 7.50298L35.9404 4.87624V8.32089C35.9404 8.96578 36.5638 9.50056 37.3155 9.50056C38.0672 9.50056 38.6906 8.96578 38.6906 8.32089V2.02929C38.6906 1.872 38.654 1.73044 38.5806 1.57315Z" fill="#204182"/>
</svg>
