<svg width="52" height="30" viewBox="0 0 52 30" fill="none" xmlns="http://www.w3.org/2000/svg">
<path d="M26.281 9.61949C29.387 9.61949 31.8916 7.47062 31.8916 4.80625C31.8916 2.14188 29.4068 -0.00698853 26.281 -0.00698853C23.175 -0.00698853 20.6704 2.14188 20.6704 4.80625C20.6902 7.48799 23.1951 9.61949 26.281 9.61949ZM13.2562 23.5609H3.17704C-0.0890841 23.5609 -0.269479 19.2805 3.23717 19.2805H11.9736L16.9831 12.9545C18.466 11.2183 20.1492 10.3931 22.5336 10.3931H30.0079C32.3925 10.3931 34.0756 11.1495 35.5584 12.9545L40.588 19.2805H49.3848C52.9115 19.2805 52.691 23.5609 49.5051 23.5609H39.4259C38.6243 23.5609 37.6624 23.3202 37.1014 22.5811L33.254 17.8711L33.234 29.6636H19.4479L19.4279 17.8711L15.5805 22.5811C15.0195 23.303 14.0578 23.5609 13.2562 23.5609Z" fill="#204182"/>
<path d="M6.3811 16.9325C9.64988 16.9325 12.3212 14.6559 12.3212 11.8366C12.3212 9.01731 9.66747 6.74071 6.3811 6.74071C3.09473 6.74071 0.458557 9.0324 0.458557 11.8517C0.458557 14.6559 3.11232 16.9325 6.3811 16.9325ZM6.05303 12.2688C4.96351 11.9421 4.28386 11.4697 4.28386 10.6305C4.28386 9.85654 4.88129 9.24839 5.97695 9.05749V8.21826H6.79711V9.01731C7.47655 9.01731 7.96865 9.13785 8.33189 9.30384L7.9979 10.3089C7.72833 10.2134 7.289 10.0525 6.68564 10.0525C6.08228 10.0525 5.75422 10.3089 5.75422 10.5651C5.75422 10.9168 6.13505 11.0525 6.95521 11.339C8.07419 11.6908 8.59553 12.1782 8.59553 12.9773C8.59553 13.7763 8.02735 14.3845 6.82636 14.6156V15.4146H6.0062V14.6407C5.2973 14.6407 4.58268 14.4798 4.23702 14.3139L4.53584 13.2836C4.91667 13.4445 5.5141 13.6354 6.14691 13.6354C6.82636 13.6354 7.16035 13.3791 7.16035 13.0273C7.16035 12.6755 6.83802 12.5302 6.05303 12.2688Z" fill="#204182"/>
<path d="M45.7652 9.48887V8.83528L44.9667 8.71965C44.9078 8.49576 44.8047 8.28591 44.666 8.09729L45.1354 7.53125L44.5965 7.06892L43.9367 7.4716C43.7172 7.35264 43.4726 7.26473 43.2112 7.21367L43.0768 6.52902H42.3145L42.1802 7.21367C41.9186 7.26473 41.6742 7.35264 41.4547 7.4716L40.7949 7.06892L40.256 7.53125L40.7254 8.09729C40.5867 8.28591 40.4836 8.49576 40.4247 8.71965L39.6262 8.83528V9.48887L40.4247 9.60415C40.4836 9.82856 40.5867 10.0382 40.7254 10.227L40.256 10.7931L40.7949 11.2551L41.4547 10.8524C41.6742 10.9713 41.9188 11.0598 42.1802 11.1103L42.3145 11.7953H43.0768L43.2112 11.1103C43.4728 11.0598 43.7172 10.9713 43.9367 10.8524L44.5965 11.2551L45.1354 10.7931L44.666 10.227C44.8047 10.0384 44.9078 9.82856 44.9667 9.60415L45.7652 9.48887ZM42.6954 10.2012C42.027 10.2012 41.4846 9.73592 41.4846 9.16216C41.4846 8.58841 42.027 8.12308 42.6954 8.12308C43.3644 8.12308 43.9066 8.58841 43.9066 9.16216C43.9066 9.73609 43.3644 10.2012 42.6954 10.2012ZM51.0694 13.2369L52 12.7414L51.6098 11.9232L50.5413 12.1296C50.3396 11.8825 50.0885 11.6628 49.7936 11.4825L50.0431 10.5678L49.0926 10.226L48.5073 11.0199C48.1506 10.9659 47.7918 10.9662 47.4451 11.0163L46.8676 10.2179L45.9138 10.5527L46.1544 11.4693C45.8664 11.6423 45.6103 11.8578 45.4001 12.1108L44.3339 11.8967L43.9354 12.7121L44.8609 13.2143C44.7979 13.5203 44.7983 13.828 44.8566 14.1254L43.926 14.6209L44.3163 15.4391L45.3847 15.2328C45.5864 15.4798 45.8376 15.6995 46.1325 15.8799L45.883 16.7945L46.8334 17.1363L47.4188 16.3425C47.7755 16.3966 48.1342 16.3962 48.4809 16.3462L49.0585 17.1444L50.0122 16.8096L49.7717 15.893C50.0596 15.72 50.3157 15.5045 50.526 15.2515L51.5922 15.4656L51.9906 14.6502L51.0651 14.1481C51.1281 13.8421 51.1277 13.5343 51.0694 13.2369ZM49.4737 14.2244C49.1239 14.9401 48.1639 15.2771 47.3296 14.9771C46.4953 14.6771 46.1024 13.8535 46.4522 13.1378C46.8019 12.422 47.762 12.085 48.5962 12.385C49.4307 12.6852 49.8234 13.5087 49.4737 14.2244Z" fill="#204182"/>
</svg>
