<svg width="49" height="31" viewBox="0 0 49 31" fill="none" xmlns="http://www.w3.org/2000/svg">
<path d="M14.9048 20.7928C15.5914 20.6117 15.8544 20.2495 15.9072 19.9777C15.8544 19.6152 15.61 19.4683 15.5303 18.8091C15.437 18.0419 16.1838 16.2063 16.4058 15.8788C16.3756 15.8161 16.3444 15.7608 16.3146 15.6965C15.2741 15.1302 14.2142 14.1061 13.7272 12.2552C13.4667 11.2657 13.6822 10.2545 14.3061 9.39238C14.3061 9.39238 13.6003 5.16784 14.5942 2.40875C13.6657 2.02533 12.6546 2.0899 11.2687 2.20868C10.2052 2.30003 10.0542 2.49393 9.23733 2.39228C8.30117 2.27553 7.54148 2.03173 7.313 1.93357C7.18135 1.87726 5.94654 2.81708 5.60277 3.58457C4.51227 6.01581 4.80507 7.68264 5.08263 8.94381C5.07336 9.07297 5.06145 9.20165 5.06145 9.33218L5.3149 10.2559C5.31584 10.2657 5.3149 10.2748 5.31528 10.284C4.76279 10.7091 4.42981 11.3237 4.60562 11.9917C4.96763 13.3656 5.74709 13.9228 6.51463 14.1642C7.02371 15.3962 7.51765 16.1742 8.09406 16.6972C8.23979 17.2673 8.36851 18.0415 8.27526 18.8092C7.88619 22.0245 0 20.3308 0 25.9756C0 26.7149 2.45422 27.921 8.39962 28.2683C8.38222 28.1594 8.3703 28.0496 8.3703 27.9374C8.3703 22.8754 12.2061 21.5052 14.9048 20.7928Z" fill="#204182"/>
<path d="M40.1453 18.8089C40.0521 18.0416 40.1804 17.2678 40.3262 16.6986C40.9036 16.1746 41.3975 15.3963 41.9067 14.1636C42.674 13.9221 43.453 13.3646 43.8146 11.9914C43.982 11.3589 43.6923 10.7739 43.1914 10.3526C43.5544 9.30889 44.9816 4.47318 40.6949 3.49248C39.2693 1.96406 38.0225 2.02507 35.884 2.20842C34.8204 2.29978 34.6693 2.49368 33.8529 2.39202C33.6741 2.36971 33.5047 2.34188 33.3412 2.31219C33.498 2.49555 33.6475 2.68507 33.7798 2.88757C35.2107 5.08077 34.8328 7.85844 34.3832 9.55504C34.9194 10.3834 35.0949 11.3354 34.8526 12.2555C34.3655 14.1052 33.3061 15.129 32.2662 15.6954C32.2141 15.8076 32.0608 16.0373 32.2719 16.2638C32.4647 16.5319 32.4993 16.5064 32.7095 16.6969C32.855 17.267 32.9836 18.0412 32.8901 18.8089C32.8133 19.4457 31.5328 19.9775 31.894 20.2348C32.2492 20.3631 32.6613 20.4972 33.1234 20.6427C35.7738 21.4776 40.2095 22.8751 40.2095 27.9372C40.2095 28.0461 40.1984 28.1529 40.1819 28.2585C46.011 27.8993 48.4203 26.708 48.4203 25.9754C48.4203 20.3306 40.5343 22.0242 40.1453 18.8089Z" fill="#204182"/>
<path d="M28.4664 19.6859C28.359 18.8028 28.5072 17.9118 28.6745 17.2555C29.3391 16.6533 29.9084 15.7566 30.4945 14.3374C31.3778 14.0594 32.2749 13.4178 32.6913 11.8365C32.8831 11.1083 32.5501 10.4349 31.9739 9.94972C32.3912 8.74817 34.0342 3.18043 29.0992 2.05141C27.458 0.29153 26.0219 0.361871 23.5601 0.573053C22.3353 0.678036 22.1613 0.90147 21.2213 0.784236C20.1432 0.649803 19.2688 0.369091 19.0057 0.256239C18.8542 0.191091 17.4323 1.27345 17.0361 2.15697C15.7812 4.95597 16.1183 6.87544 16.4375 8.32743C16.427 8.47614 16.4125 8.6242 16.4125 8.77454L16.7049 9.83816C16.7059 9.84911 16.7049 9.85958 16.7053 9.87053C16.0692 10.3597 15.6861 11.0674 15.8886 11.8365C16.3049 13.4184 17.2026 14.0598 18.0862 14.3376C18.6725 15.7561 19.2407 16.6525 19.9049 17.2547C20.0726 17.9106 20.2208 18.8024 20.1135 19.6859C19.6654 23.3875 10.586 21.4377 10.586 27.9373C10.586 28.9397 14.5012 30.6878 24.2899 30.6878C34.0786 30.6878 37.9939 28.9397 37.9939 27.9373C37.9939 21.4376 28.9145 23.3875 28.4664 19.6859ZM22.7008 29.6119L20.2159 20.953L23.2728 22.0445L23.1084 23.3117L23.5941 23.3026L22.7008 29.6119ZM26.1215 29.6119L25.2281 23.3026L25.7137 23.3117L25.5493 22.0445L28.6062 20.953L26.1215 29.6119Z" fill="#204182"/>
</svg>
