<svg width="40" height="40" viewBox="0 0 40 40" fill="none" xmlns="http://www.w3.org/2000/svg">
<rect x="0.611145" y="0.333374" width="39.1111" height="39.1111" rx="19.5556" fill="#F04438"/>
<path d="M25.0556 14.1852H15.2778C14.6295 14.1852 14.0078 14.4427 13.5493 14.9011C13.0909 15.3596 12.8334 15.9813 12.8334 16.6296V23.1481C12.8334 23.7965 13.0909 24.4182 13.5493 24.8766C14.0078 25.3351 14.6295 25.5926 15.2778 25.5926H25.0556C25.7039 25.5926 26.3257 25.3351 26.7841 24.8766C27.2425 24.4182 27.5 23.7965 27.5 23.1481V16.6296C27.5 15.9813 27.2425 15.3596 26.7841 14.9011C26.3257 14.4427 25.7039 14.1852 25.0556 14.1852Z" stroke="white" stroke-width="1.83333" stroke-linecap="round" stroke-linejoin="round"/>
<path d="M12.8334 18.2593H27.5" stroke="white" stroke-width="1.83333" stroke-linecap="round" stroke-linejoin="round"/>
<path d="M16.0927 22.3334H16.1008" stroke="white" stroke-width="1.83333" stroke-linecap="round" stroke-linejoin="round"/>
<path d="M19.3519 22.3334H20.9815" stroke="white" stroke-width="1.83333" stroke-linecap="round" stroke-linejoin="round"/>
</svg>
