<svg width="41" height="34" viewBox="0 0 41 34" fill="none" xmlns="http://www.w3.org/2000/svg">
<path fill-rule="evenodd" clip-rule="evenodd" d="M35.8521 32.62C37.172 33.7565 37.9872 32.9484 39.0709 32.0209C40.1546 31.0933 41.0941 30.3918 39.7743 29.2574C39.7743 29.2574 21.3765 13.4893 16.8329 9.60211L12.9108 12.9647L35.8521 32.62Z" fill="#204182"/>
<path fill-rule="evenodd" clip-rule="evenodd" d="M5.60562 15.7023L7.13173 14.4144C7.13173 14.4144 6.45815 12.8301 7.4449 12.0711C8.43166 11.312 10.097 11.7811 10.097 11.7811L15.4533 7.33954C15.4533 7.33954 15.0779 5.03028 15.575 4.60383C16.0722 4.17737 21.6273 1.85532 22.1642 1.39049L21.0233 0.411774C21.0233 0.411774 13.2486 1.21351 12.406 1.93422C11.9114 2.36067 8.21044 5.56762 5.57082 7.83209C5.57082 7.83209 6.23197 9.45049 5.36204 10.1968C4.48962 10.9452 2.52605 10.41 2.52605 10.41C1.59895 11.2054 0.977573 11.7363 0.977573 11.7363C0.323881 12.3013 0.709137 13.0946 1.51196 13.7833L3.21703 15.246C4.02482 15.9369 4.95192 16.2631 5.60562 15.7023Z" fill="#204182"/>
<path fill-rule="evenodd" clip-rule="evenodd" d="M29.678 12.5045C32.3549 13.5941 35.7128 13.2593 37.9349 11.353C39.6499 9.88177 40.3309 7.85824 39.9656 5.95625L36.1851 9.19518L32.9688 9.87964L29.335 6.8049L30.1875 3.95405L33.9332 0.781221C31.7136 0.469909 29.2057 0.919819 27.4907 2.39322C25.2662 4.30161 24.963 7.25268 26.2331 9.55127L23.7625 11.6686C24.8486 12.5962 26.0094 13.5919 27.2124 14.6218L29.678 12.5045Z" fill="#204182"/>
<path fill-rule="evenodd" clip-rule="evenodd" d="M18.9876 22.3207L15.2468 19.1138L11.9958 21.9049C11.792 22.0755 11.6478 22.2696 11.5459 22.4721C11.3545 22.4082 11.2476 22.406 11.1805 22.4295C10.5591 22.2525 9.90297 22.1331 9.21448 22.1331C5.78197 22.1331 3.00067 24.4893 3.00067 27.3977C3.00067 30.3061 5.78197 32.6623 9.21448 32.6623C12.647 32.6623 15.4283 30.3061 15.4283 27.3977C15.4283 26.7943 15.2816 26.2228 15.0654 25.6833C15.053 25.6322 15.0505 25.5853 15.0157 25.5106C15.2742 25.4189 15.5178 25.2953 15.7315 25.1098L18.9876 22.3207ZM9.21448 30.4639C7.19623 30.4639 5.56324 29.0929 5.56324 27.3977C5.56324 25.7025 7.19375 24.3315 9.21448 24.3315C11.2352 24.3315 12.8657 25.7025 12.8657 27.3977C12.8657 29.0929 11.2327 30.4639 9.21448 30.4639Z" fill="#204182"/>
</svg>
