<svg width="30" height="31" viewBox="0 0 30 31" fill="none" xmlns="http://www.w3.org/2000/svg">
<path d="M17.1795 2.79797L17.1677 8.44513L17.156 14.0923L16.617 12.7813V12.778L15.9178 25.3496C16.6052 27.0169 16.9724 27.9077 16.9763 27.911C16.9802 27.9144 17.3709 27.9346 17.8435 27.9547C19.2732 28.0152 21.0466 28.1463 22.3942 28.2909C22.7067 28.3245 22.9723 28.3413 22.9918 28.3278C23.0114 28.3144 23.0153 22.5664 23.0114 15.5511L22.9997 2.79797H17.1795Z" fill="url(#paint0_linear_1_273)"/>
<path d="M6.65091 2.78107V15.5477C6.65091 22.5697 6.65872 28.3211 6.67044 28.3312C6.68216 28.3412 7.18606 28.2976 7.79542 28.2404C8.40479 28.1833 9.24462 28.1093 9.66258 28.0791C10.3032 28.032 12.225 27.9278 12.4438 27.9244C12.5102 27.9244 12.5141 27.6387 12.5219 22.5159L12.5336 17.1074L12.9985 18.2368C13.0688 18.4116 13.0922 18.4654 13.1625 18.6369L13.8617 6.06853C13.7133 5.70886 13.7914 5.8971 13.6235 5.48701C13.0531 4.09875 12.5688 2.92561 12.5492 2.87183L12.5102 2.77771H6.65091V2.78107Z" fill="url(#paint1_linear_1_273)"/>
<path d="M6.65091 2.78107L12.5298 17.1174V17.1107L12.9946 18.2401C15.5766 24.5293 16.9633 27.9041 16.9711 27.9108C16.975 27.9142 17.3656 27.9344 17.8383 27.9545C19.268 28.015 21.0414 28.1461 22.389 28.2907C22.6976 28.3243 22.9671 28.3411 22.9828 28.3277L17.1547 14.0888V14.0922L16.6156 12.7812C16.0883 11.5005 15.7367 10.6434 13.6157 5.48699C13.0454 4.09874 12.561 2.92561 12.5415 2.87183L12.5024 2.77771H9.57666L6.65091 2.78107Z" fill="#E30A17"/>
<defs>
<linearGradient id="paint0_linear_1_273" x1="25.6365" y1="21.8901" x2="16.321" y2="25.9811" gradientUnits="userSpaceOnUse">
<stop stop-color="#B20610"/>
<stop offset="0.255959" stop-color="#B20610"/>
<stop offset="1" stop-color="#590004"/>
</linearGradient>
<linearGradient id="paint1_linear_1_273" x1="3.82604" y1="8.3791" x2="13.9004" y2="4.0059" gradientUnits="userSpaceOnUse">
<stop stop-color="#B20610"/>
<stop offset="0.255959" stop-color="#B20610"/>
<stop offset="1" stop-color="#590004"/>
</linearGradient>
</defs>
</svg>
