<svg width="30" height="30" viewBox="0 0 30 30" fill="none" xmlns="http://www.w3.org/2000/svg">
<path d="M9.72213 6.44441C9.72213 5.79611 9.97967 5.17435 10.4381 4.71593C10.8965 4.25751 11.5183 3.99997 12.1666 3.99997C12.8149 3.99997 13.4366 4.25751 13.8951 4.71593C14.3535 5.17435 14.611 5.79611 14.611 6.44441C16.0146 7.10811 17.2112 8.14126 18.0724 9.43311C18.9336 10.725 19.4271 12.2268 19.4999 13.7777V17.4444C19.5919 18.2043 19.861 18.9319 20.2856 19.5688C20.7101 20.2056 21.2783 20.7339 21.9443 21.1111H2.38879C3.05483 20.7339 3.62301 20.2056 4.04758 19.5688C4.47215 18.9319 4.74126 18.2043 4.83324 17.4444V13.7777C4.90603 12.2268 5.39949 10.725 6.26073 9.43311C7.12197 8.14126 8.31852 7.10811 9.72213 6.44441Z" stroke="#516778" stroke-width="1.83333" stroke-linecap="round" stroke-linejoin="round"/>
<path d="M8.50012 21.1112V22.3334C8.50012 23.3059 8.88643 24.2385 9.57406 24.9261C10.2617 25.6138 11.1943 26.0001 12.1668 26.0001C13.1392 26.0001 14.0719 25.6138 14.7595 24.9261C15.4471 24.2385 15.8335 23.3059 15.8335 22.3334V21.1112" stroke="#516778" stroke-width="1.83333" stroke-linecap="round" stroke-linejoin="round"/>
</svg>
