<svg width="294" height="294" viewBox="0 0 294 294" fill="none" xmlns="http://www.w3.org/2000/svg">
<path d="M293.722 147.222C293.722 228.224 228.057 293.889 147.056 293.889C66.0538 293.889 0.388885 228.224 0.388885 147.222C0.388885 66.2205 66.0538 0.555542 147.056 0.555542C228.057 0.555542 293.722 66.2205 293.722 147.222ZM73.7222 147.222C73.7222 187.723 106.555 220.556 147.056 220.556C187.556 220.556 220.389 187.723 220.389 147.222C220.389 106.721 187.556 73.8889 147.056 73.8889C106.555 73.8889 73.7222 106.721 73.7222 147.222Z" fill="#ECEFF2"/>
<path d="M147.056 0.555542C178.029 0.555542 208.206 10.3609 233.264 28.5664C258.322 46.7718 276.973 72.4427 286.544 101.9L216.8 124.561C212.014 109.832 202.689 96.997 190.16 87.8943C177.631 78.7916 162.542 73.8889 147.056 73.8889V0.555542Z" fill="#F04438"/>
<path d="M286.544 101.9C294.902 127.624 295.984 155.16 289.67 181.461C283.355 207.762 269.891 231.805 250.765 250.931C231.638 270.057 207.596 283.522 181.294 289.836C154.993 296.151 127.458 295.069 101.733 286.711L124.394 216.966C137.257 221.146 151.024 221.687 164.175 218.529C177.326 215.372 189.347 208.64 198.91 199.077C208.473 189.514 215.206 177.492 218.363 164.342C221.52 151.191 220.979 137.423 216.8 124.561L286.544 101.9Z" fill="#9E77ED"/>
<path d="M101.733 286.711C72.276 277.139 46.6052 258.488 28.3997 233.431L87.7276 190.326C96.8304 202.855 109.666 212.181 124.394 216.966L101.733 286.711Z" fill="#0BA5EC"/>
<path d="M28.3997 233.431C6.47285 203.251 -3.13007 165.85 1.5454 128.84L74.3005 138.031C71.9627 156.536 76.7642 175.237 87.7276 190.326L28.3997 233.431Z" fill="#17B26A"/>
<path d="M1.48212 129.348C4.87395 101.724 16.0557 75.6349 33.7213 54.1284C51.3869 32.6219 74.8071 16.5858 101.246 7.89297L124.151 77.5576C110.931 81.904 99.2212 89.9221 90.3884 100.675C81.5556 111.429 75.9648 124.473 74.2688 138.285L1.48212 129.348Z" fill="#4E5BA6"/>
<path d="M100.518 8.13472C115.846 3.00597 131.916 0.446266 148.08 0.559117L147.568 73.8907C139.486 73.8342 131.451 75.1141 123.787 77.6785L100.518 8.13472Z" fill="#ECEFF2"/>
</svg>
