<svg width="41" height="35" viewBox="0 0 41 35" fill="none" xmlns="http://www.w3.org/2000/svg">
<path d="M11.3834 5.56954V34.7765H17.0576V28.827C17.0576 28.5279 17.3395 28.2861 17.6881 28.2861H22.7319C23.0806 28.2861 23.3624 28.5279 23.3624 28.827V34.7765H29.0366V10.9782V2.32432C29.0366 1.12845 27.9087 0.160835 26.5147 0.160835H13.9053C12.5113 0.160835 11.3834 1.12845 11.3834 2.32432V5.56954ZM21.471 5.02867C21.471 4.72957 21.7528 4.4878 22.1014 4.4878H24.6233C24.972 4.4878 25.2538 4.72957 25.2538 5.02867V7.19215C25.2538 7.49125 24.972 7.73302 24.6233 7.73302H22.1014C21.7528 7.73302 21.471 7.49125 21.471 7.19215V5.02867ZM21.471 10.4374C21.471 10.1383 21.7528 9.8965 22.1014 9.8965H24.6233C24.972 9.8965 25.2538 10.1383 25.2538 10.4374V12.6009C25.2538 12.9 24.972 13.1417 24.6233 13.1417H22.1014C21.7528 13.1417 21.471 12.9 21.471 12.6009V10.4374ZM21.471 15.8461C21.471 15.547 21.7528 15.3052 22.1014 15.3052H24.6233C24.972 15.3052 25.2538 15.547 25.2538 15.8461V18.0096C25.2538 18.3087 24.972 18.5504 24.6233 18.5504H22.1014C21.7528 18.5504 21.471 18.3087 21.471 18.0096V15.8461ZM21.471 21.2548C21.471 20.9557 21.7528 20.7139 22.1014 20.7139H24.6233C24.972 20.7139 25.2538 20.9557 25.2538 21.2548V23.4183C25.2538 23.7174 24.972 23.9591 24.6233 23.9591H22.1014C21.7528 23.9591 21.471 23.7174 21.471 23.4183V21.2548ZM15.1662 5.02867C15.1662 4.72957 15.448 4.4878 15.7967 4.4878H18.3186C18.6672 4.4878 18.9491 4.72957 18.9491 5.02867V7.19215C18.9491 7.49125 18.6672 7.73302 18.3186 7.73302H15.7967C15.448 7.73302 15.1662 7.49125 15.1662 7.19215V5.02867ZM15.1662 10.4374C15.1662 10.1383 15.448 9.8965 15.7967 9.8965H18.3186C18.6672 9.8965 18.9491 10.1383 18.9491 10.4374V12.6009C18.9491 12.9 18.6672 13.1417 18.3186 13.1417H15.7967C15.448 13.1417 15.1662 12.9 15.1662 12.6009V10.4374ZM15.1662 15.8461C15.1662 15.547 15.448 15.3052 15.7967 15.3052H18.3186C18.6672 15.3052 18.9491 15.547 18.9491 15.8461V18.0096C18.9491 18.3087 18.6672 18.5504 18.3186 18.5504H15.7967C15.448 18.5504 15.1662 18.3087 15.1662 18.0096V15.8461ZM15.1662 21.2548C15.1662 20.9557 15.448 20.7139 15.7967 20.7139H18.3186C18.6672 20.7139 18.9491 20.9557 18.9491 21.2548V23.4183C18.9491 23.7174 18.6672 23.9591 18.3186 23.9591H15.7967C15.448 23.9591 15.1662 23.7174 15.1662 23.4183V21.2548Z" fill="#204182"/>
<path d="M17.6882 16.3869H16.4272V17.4698H17.6882V16.3869Z" fill="#204182"/>
<path d="M17.6882 21.7956H16.4272V22.8784H17.6882V21.7956Z" fill="#204182"/>
<path d="M22.1015 29.3678H18.3187V34.7765H22.1015V29.3678Z" fill="#204182"/>
<path d="M6.33968 27.2046H5.07874V28.2874H6.33968V27.2046Z" fill="#204182"/>
<path d="M17.6882 5.56947H16.4272V6.65228H17.6882V5.56947Z" fill="#204182"/>
<path d="M17.6882 10.9783H16.4272V12.0611H17.6882V10.9783Z" fill="#204182"/>
<path d="M23.9928 10.9783H22.7319V12.0611H23.9928V10.9783Z" fill="#204182"/>
<path d="M23.9928 5.56947H22.7319V6.65228H23.9928V5.56947Z" fill="#204182"/>
<path d="M23.9928 16.3869H22.7319V17.4698H23.9928V16.3869Z" fill="#204182"/>
<path d="M23.9928 21.7956H22.7319V22.8784H23.9928V21.7956Z" fill="#204182"/>
<path d="M6.33968 21.7956H5.07874V22.8784H6.33968V21.7956Z" fill="#204182"/>
<path d="M10.1224 5.56947H2.55669C1.16271 5.56947 0.03479 6.53709 0.03479 7.73295V32.613C0.03479 33.8088 1.16271 34.7765 2.55669 34.7765H10.1224V5.56947ZM7.60048 28.8269C7.60048 29.126 7.31866 29.3678 6.97001 29.3678H4.44811C4.09946 29.3678 3.81764 29.126 3.81764 28.8269V26.6634C3.81764 26.3643 4.09946 26.1225 4.44811 26.1225H6.97001C7.31866 26.1225 7.60048 26.3643 7.60048 26.6634V28.8269ZM7.60048 23.4182C7.60048 23.7173 7.31866 23.9591 6.97001 23.9591H4.44811C4.09946 23.9591 3.81764 23.7173 3.81764 23.4182V21.2547C3.81764 20.9556 4.09946 20.7138 4.44811 20.7138H6.97001C7.31866 20.7138 7.60048 20.9556 7.60048 21.2547V23.4182ZM7.60048 18.0095C7.60048 18.3086 7.31866 18.5504 6.97001 18.5504H4.44811C4.09946 18.5504 3.81764 18.3086 3.81764 18.0095V15.846C3.81764 15.5469 4.09946 15.3051 4.44811 15.3051H6.97001C7.31866 15.3051 7.60048 15.5469 7.60048 15.846V18.0095ZM6.97001 13.1417H4.44811C4.09946 13.1417 3.81764 12.8999 3.81764 12.6008V10.4373C3.81764 10.1382 4.09946 9.89643 4.44811 9.89643H6.97001C7.31866 9.89643 7.60048 10.1382 7.60048 10.4373V12.6008C7.60048 12.8999 7.31866 13.1417 6.97001 13.1417Z" fill="#204182"/>
<path d="M35.3414 27.2046H34.0804V28.2874H35.3414V27.2046Z" fill="#204182"/>
<path d="M35.3414 21.7956H34.0804V22.8784H35.3414V21.7956Z" fill="#204182"/>
<path d="M35.3414 16.3869H34.0804V17.4698H35.3414V16.3869Z" fill="#204182"/>
<path d="M37.8632 10.9783H30.2975V34.7766H37.8632C39.2572 34.7766 40.3851 33.809 40.3851 32.6131V13.1418C40.3851 11.9459 39.2572 10.9783 37.8632 10.9783ZM36.6023 28.827C36.6023 29.1261 36.3205 29.3679 35.9718 29.3679H33.4499C33.1013 29.3679 32.8194 29.1261 32.8194 28.827V26.6635C32.8194 26.3644 33.1013 26.1227 33.4499 26.1227H35.9718C36.3205 26.1227 36.6023 26.3644 36.6023 26.6635V28.827ZM36.6023 23.4183C36.6023 23.7174 36.3205 23.9592 35.9718 23.9592H33.4499C33.1013 23.9592 32.8194 23.7174 32.8194 23.4183V21.2548C32.8194 20.9557 33.1013 20.714 33.4499 20.714H35.9718C36.3205 20.714 36.6023 20.9557 36.6023 21.2548V23.4183ZM36.6023 18.0096C36.6023 18.3087 36.3205 18.5505 35.9718 18.5505H33.4499C33.1013 18.5505 32.8194 18.3087 32.8194 18.0096V15.8461C32.8194 15.547 33.1013 15.3053 33.4499 15.3053H35.9718C36.3205 15.3053 36.6023 15.547 36.6023 15.8461V18.0096Z" fill="#204182"/>
<path d="M6.33968 16.3869H5.07874V17.4698H6.33968V16.3869Z" fill="#204182"/>
<path d="M6.33968 10.9783H5.07874V12.0611H6.33968V10.9783Z" fill="#204182"/>
</svg>
