<svg width="30" height="31" viewBox="0 0 30 31" fill="none" xmlns="http://www.w3.org/2000/svg">
<path d="M0.166641 15.5555C0.166641 7.45535 6.73313 0.888855 14.8333 0.888855C22.9335 0.888855 29.5 7.45535 29.5 15.5555C29.5 23.6557 22.9335 30.2222 14.8333 30.2222C6.73313 30.2222 0.166641 23.6557 0.166641 15.5555Z" fill="#F9FAFB"/>
<path d="M0.472197 15.5555C0.472197 7.6241 6.90189 1.19441 14.8333 1.19441C22.7647 1.19441 29.1944 7.6241 29.1944 15.5555C29.1944 23.4869 22.7647 29.9166 14.8333 29.9166C6.90189 29.9166 0.472197 23.4869 0.472197 15.5555Z" stroke="black" stroke-opacity="0.08" stroke-width="0.611111"/>
<path d="M5.66599 20.5555V9.88888H9.66599C10.4854 9.88888 11.1729 10.0312 11.7285 10.316C12.2875 10.6007 12.7094 11 12.9941 11.5139C13.2823 12.0243 13.4264 12.6198 13.4264 13.3003C13.4264 13.9844 13.2806 14.5781 12.9889 15.0816C12.7007 15.5816 12.2754 15.9687 11.7129 16.243C11.1504 16.5139 10.4594 16.6493 9.63995 16.6493H6.79099V15.0451H9.37953C9.8587 15.0451 10.2511 14.9792 10.5566 14.8472C10.8622 14.7118 11.0879 14.5156 11.2337 14.2587C11.383 13.9983 11.4577 13.6788 11.4577 13.3003C11.4577 12.9219 11.383 12.5989 11.2337 12.3316C11.0844 12.0608 10.857 11.8559 10.5514 11.717C10.2459 11.5746 9.85175 11.5035 9.36912 11.5035H7.59828V20.5555H5.66599ZM11.1764 15.7222L13.817 20.5555H11.6608L9.06703 15.7222H11.1764ZM24.3353 13.4878H22.3873C22.3318 13.1684 22.2294 12.8854 22.0801 12.6389C21.9307 12.3889 21.745 12.1771 21.5228 12.0035C21.3005 11.8298 21.0471 11.6996 20.7623 11.6128C20.4811 11.5226 20.1773 11.4774 19.8509 11.4774C19.271 11.4774 18.7571 11.6233 18.3092 11.9149C17.8613 12.2031 17.5106 12.6267 17.2571 13.1858C17.0037 13.7413 16.8769 14.4201 16.8769 15.2222C16.8769 16.0382 17.0037 16.7257 17.2571 17.2847C17.5141 17.8403 17.8648 18.2604 18.3092 18.5451C18.7571 18.8264 19.2693 18.967 19.8457 18.967C20.1651 18.967 20.4637 18.9253 20.7415 18.842C21.0228 18.7552 21.2745 18.6285 21.4967 18.4618C21.7224 18.2951 21.9117 18.0903 22.0644 17.8472C22.2207 17.6042 22.3283 17.3264 22.3873 17.0139L24.3353 17.0243C24.2623 17.5312 24.1044 18.0069 23.8613 18.4514C23.6217 18.8958 23.3075 19.2882 22.9186 19.6285C22.5297 19.9653 22.0748 20.2292 21.554 20.4201C21.0332 20.6076 20.4551 20.7014 19.8196 20.7014C18.8821 20.7014 18.0453 20.4844 17.3092 20.0503C16.5731 19.6163 15.9932 18.9896 15.5696 18.1701C15.146 17.3507 14.9342 16.368 14.9342 15.2222C14.9342 14.0729 15.1478 13.0903 15.5748 12.2743C16.0019 11.4548 16.5835 10.8281 17.3196 10.3941C18.0557 9.96006 18.8891 9.74304 19.8196 9.74304C20.4134 9.74304 20.9655 9.82638 21.4759 9.99304C21.9863 10.1597 22.4412 10.4045 22.8405 10.7274C23.2398 11.0469 23.5679 11.4392 23.8248 11.9045C24.0853 12.3663 24.2554 12.8941 24.3353 13.4878Z" fill="#668091"/>
</svg>
