<svg width="30" height="30" viewBox="0 0 30 30" fill="none" xmlns="http://www.w3.org/2000/svg">
<path d="M0.166641 14.8889C0.166641 6.78872 6.73313 0.222229 14.8333 0.222229C22.9335 0.222229 29.5 6.78872 29.5 14.8889C29.5 22.9891 22.9335 29.5556 14.8333 29.5556C6.73313 29.5556 0.166641 22.9891 0.166641 14.8889Z" fill="#F9FAFB"/>
<path d="M0.472197 14.8889C0.472197 6.95748 6.90189 0.527785 14.8333 0.527785C22.7647 0.527785 29.1944 6.95748 29.1944 14.8889C29.1944 22.8203 22.7647 29.25 14.8333 29.25C6.90189 29.25 0.472197 22.8203 0.472197 14.8889Z" stroke="black" stroke-opacity="0.08" stroke-width="0.611111"/>
<path d="M5.94529 19.8889V9.22222H9.94529C10.7647 9.22222 11.4522 9.36458 12.0078 9.6493C12.5668 9.93402 12.9887 10.3333 13.2734 10.8472C13.5616 11.3576 13.7057 11.9531 13.7057 12.6337C13.7057 13.3177 13.5599 13.9115 13.2682 14.4149C12.98 14.9149 12.5547 15.3021 11.9922 15.5764C11.4297 15.8472 10.7387 15.9826 9.91925 15.9826H7.07029V14.3785H9.65883C10.138 14.3785 10.5304 14.3125 10.8359 14.1806C11.1415 14.0451 11.3672 13.849 11.513 13.592C11.6623 13.3316 11.737 13.0121 11.737 12.6337C11.737 12.2552 11.6623 11.9323 11.513 11.6649C11.3637 11.3941 11.1363 11.1892 10.8307 11.0503C10.5251 10.908 10.1311 10.8368 9.64841 10.8368H7.87758V19.8889H5.94529ZM11.4557 15.0556L14.0963 19.8889H11.9401L9.34633 15.0556H11.4557ZM16.6393 9.22222L19.4153 17.6181H19.5247L22.2955 9.22222H24.4205L20.6601 19.8889H18.2747L14.5195 9.22222H16.6393Z" fill="#668091"/>
</svg>
