<svg width="31" height="30" viewBox="0 0 31 30" fill="none" xmlns="http://www.w3.org/2000/svg">
<path d="M15.6111 25.8889C17.0557 25.8889 18.4861 25.6043 19.8207 25.0515C21.1552 24.4987 22.3679 23.6885 23.3893 22.667C24.4108 21.6456 25.221 20.433 25.7738 19.0984C26.3266 17.7638 26.6111 16.3334 26.6111 14.8889C26.6111 13.4443 26.3266 12.0139 25.7738 10.6793C25.221 9.34476 24.4108 8.13213 23.3893 7.11069C22.3679 6.08924 21.1552 5.27899 19.8207 4.72619C18.4861 4.17339 17.0557 3.88886 15.6111 3.88886C12.6938 3.88886 9.89587 5.04779 7.83297 7.11069C5.77007 9.17359 4.61115 11.9715 4.61115 14.8889C4.61115 17.8062 5.77007 20.6041 7.83297 22.667C9.89587 24.7299 12.6938 25.8889 15.6111 25.8889Z" stroke="#D92D20" stroke-width="2.44444" stroke-linecap="round" stroke-linejoin="round"/>
<path d="M11.9445 14.8889H19.2778" stroke="#D92D20" stroke-width="2.44444" stroke-linecap="round" stroke-linejoin="round"/>
</svg>
