<svg width="43" height="39" viewBox="0 0 43 39" fill="none" xmlns="http://www.w3.org/2000/svg">
<path d="M22.926 28.3202C23.0258 27.9774 23.0258 27.5489 23.0258 27.1204C23.0258 26.692 23.0258 26.3492 22.926 25.9207L25.7229 24.2069C26.0226 24.0355 26.1224 23.6927 25.9227 23.4356L23.2256 19.4937C23.0258 19.2366 22.7262 19.1509 22.4265 19.2366L19.3299 20.522C18.6307 20.0079 17.8315 19.6651 16.9325 19.3223L16.6329 16.4087C16.6329 16.1516 16.3332 15.8946 16.0335 15.8946H10.7393C10.4397 15.8946 10.14 16.1516 10.14 16.4087L9.74043 19.408C8.84142 19.6651 8.14218 20.0936 7.34306 20.6077L4.24646 19.408C3.94679 19.3223 3.54723 19.408 3.44734 19.6651L0.7503 23.607C0.550519 23.8641 0.65041 24.2069 0.950081 24.3782L3.74701 26.0921C3.64712 26.4349 3.64712 26.8634 3.64712 27.2918C3.64712 27.7203 3.64712 28.0631 3.74701 28.4915L0.950081 30.2054C0.65041 30.3768 0.550519 30.7196 0.7503 30.9767L3.44734 34.9186C3.64712 35.1757 3.94679 35.2613 4.24646 35.1757L7.34306 33.9759C8.04229 34.4901 8.84142 34.8329 9.74043 35.1757L10.0401 38.0892C10.0401 38.3463 10.3398 38.6034 10.6394 38.6034H15.9336C16.2333 38.6034 16.533 38.3463 16.533 38.0892L16.8326 35.1757C17.7317 34.9186 18.4309 34.4901 19.23 33.9759L22.3266 35.1757C22.6263 35.2613 23.0258 35.1757 23.1257 34.9186L25.8228 30.9767C26.0226 30.7196 25.9227 30.3768 25.623 30.2054L22.926 28.3202ZM13.3365 31.4051C10.5396 31.4051 8.34197 29.5199 8.34197 27.1204C8.34197 24.721 10.5396 22.8358 13.3365 22.8358C16.1334 22.8358 18.331 24.721 18.331 27.1204C18.331 29.5199 16.1334 31.4051 13.3365 31.4051Z" fill="#204182"/>
<path d="M39.208 11.9526C39.3078 11.5241 39.3079 11.1814 39.3079 10.8386C39.3079 10.4958 39.3078 10.153 39.208 9.72456L41.7052 8.18207C42.0049 8.01069 42.0049 7.7536 41.905 7.49652L39.4077 3.81169C39.208 3.55461 38.9083 3.46892 38.6086 3.6403L35.7118 4.75432C35.0126 4.32585 34.3133 3.98308 33.5142 3.6403L33.2145 0.983797C33.3144 0.726716 33.1146 0.555328 32.815 0.555328H27.9204C27.6207 0.555328 27.321 0.726716 27.321 0.983797L27.0213 3.6403C26.2222 3.89739 25.523 4.24016 24.8238 4.75432L21.9269 3.6403C21.6273 3.55461 21.3276 3.6403 21.1278 3.81169L18.6305 7.49652C18.4308 7.7536 18.5307 8.01069 18.8303 8.18207L21.3276 9.72456V10.8386C21.3276 11.1814 21.3276 11.5241 21.4275 11.9526L18.9302 13.4951C18.6305 13.6665 18.6305 13.9236 18.7304 14.1806L21.2277 17.8655C21.4275 18.1225 21.7272 18.2082 22.0268 18.0369L24.9236 16.9228C25.6229 17.3513 26.3221 17.6941 27.1212 18.0369L27.4209 20.6934C27.4209 20.9504 27.7206 21.1218 28.0202 21.1218H32.9149C33.2145 21.1218 33.5142 20.9504 33.5142 20.6934L33.8139 18.0369C34.613 17.7798 35.3122 17.437 36.0115 16.9228L38.9083 18.0369C39.208 18.1225 39.5076 18.0369 39.7074 17.8655L42.2047 14.1806C42.4045 13.9236 42.3046 13.6665 42.0049 13.4951L39.208 11.9526ZM30.3177 15.1233C27.5208 15.1233 25.3232 13.238 25.3232 10.8386C25.3232 8.43915 27.5208 6.55389 30.3177 6.55389C33.1146 6.55389 35.3122 8.43915 35.3122 10.8386C35.3122 13.238 33.1146 15.1233 30.3177 15.1233Z" fill="#204182"/>
</svg>
