<svg width="30" height="30" viewBox="0 0 30 30" fill="none" xmlns="http://www.w3.org/2000/svg">
<path fill-rule="evenodd" clip-rule="evenodd" d="M12.2562 10.8916C12.2426 10.8916 12.2163 10.8916 12.2027 10.8916C11.9769 10.8641 11.7911 10.6572 11.7911 10.4228C11.7775 10.2021 11.6578 5.04455 14.5672 3.87244C15.298 3.58281 15.9762 3.63794 16.5474 4.06552C17.2509 4.57574 17.7559 5.59619 18.0615 7.08554C18.2736 8.1336 18.3135 9.0437 18.3135 9.08511C18.3271 9.30572 18.1549 9.47128 17.9282 9.42986C17.7025 9.40226 17.5166 9.19546 17.5166 8.97477C17.4767 8.03706 17.1712 5.45833 16.1621 4.71361C15.8429 4.4792 15.444 4.45159 14.9662 4.64467C12.4683 5.65132 12.588 10.4917 12.588 10.5469C12.588 10.7399 12.4557 10.8916 12.2562 10.8916Z" fill="#595961"/>
<path opacity="0.46" fill-rule="evenodd" clip-rule="evenodd" d="M16.4004 4.09304C15.8691 3.70688 15.2453 3.65175 14.5671 3.91377C13.3849 4.39638 12.5481 5.66513 12.1364 7.59577C11.8309 9.0161 11.8708 10.2987 11.8708 10.3538C11.8708 10.4227 11.8971 10.4917 11.9506 10.5469C12.0031 10.602 12.0566 10.6434 12.1228 10.6434C12.1364 10.6434 12.15 10.6434 12.1627 10.6434C12.2824 10.6434 12.3758 10.5469 12.3758 10.4227C12.3758 10.3676 12.2561 5.44444 14.8201 4.41019C15.3378 4.20339 15.7893 4.23091 16.162 4.50673C17.2373 5.29277 17.5564 7.95433 17.5963 8.90585C17.5963 9.04371 17.716 9.18166 17.8619 9.19538C17.9952 9.20918 18.1013 9.11264 18.1013 8.97478C18.0877 8.8093 17.9417 5.22384 16.4004 4.09304Z" fill="#B0BFC9"/>
<path opacity="0.46" fill-rule="evenodd" clip-rule="evenodd" d="M12.1364 10.4779C12.1228 10.4779 12.1228 10.4779 12.1102 10.4779C12.0304 10.4641 11.9633 10.3813 11.9506 10.2986C11.9506 10.2434 11.9107 8.98854 12.2162 7.56812C12.6143 5.67889 13.452 4.42395 14.607 3.95505C15.258 3.69303 15.8429 3.74825 16.3479 4.10681C17.8357 5.19619 17.9817 8.72652 17.9817 8.87819C17.9817 8.96093 17.9155 9.01606 17.8357 9.00234C17.7559 8.98854 17.6897 8.9196 17.6761 8.82306C17.6761 8.78165 17.5301 5.32034 16.1883 4.32741C15.7893 4.03787 15.2979 3.99646 14.7404 4.21706C12.1364 5.30653 12.2561 10.2986 12.2561 10.3537C12.2688 10.4227 12.2162 10.4779 12.1364 10.4779Z" fill="#B0BFC9"/>
<path opacity="0.62" fill-rule="evenodd" clip-rule="evenodd" d="M13.2127 6.53394C13.3188 6.32715 13.4248 6.12026 13.5182 5.89966C13.4783 5.96859 13.2127 6.6857 12.4021 6.57536C12.3885 6.57536 12.88 6.72702 13.2127 6.53394Z" fill="#595961"/>
<path opacity="0.62" fill-rule="evenodd" clip-rule="evenodd" d="M12.9198 7.41642C12.9996 7.19573 13.0794 6.96132 13.1329 6.74072C13.1066 6.82346 12.9733 7.56809 12.1228 7.56809C12.1228 7.56809 12.6143 7.66463 12.9198 7.41642Z" fill="#595961"/>
<path opacity="0.62" fill-rule="evenodd" clip-rule="evenodd" d="M17.5828 5.63759C17.4767 5.38929 17.357 5.15489 17.2373 4.90668C17.2772 4.98941 17.6762 5.77546 17.2246 6.34081C17.2246 6.34081 17.5701 6.06508 17.5828 5.63759Z" fill="#595961"/>
<path opacity="0.62" fill-rule="evenodd" clip-rule="evenodd" d="M16.8529 4.39651C16.6399 4.21723 16.4277 4.05175 16.2146 3.90009C16.2944 3.96902 16.9988 4.47924 16.9589 5.25157C16.9453 5.25157 17.0651 4.79648 16.8529 4.39651Z" fill="#595961"/>
<path opacity="0.62" fill-rule="evenodd" clip-rule="evenodd" d="M13.5979 5.77532C13.7575 5.60985 13.8898 5.43057 14.0358 5.23749C13.9832 5.29262 13.5445 5.85806 12.7611 5.65117C12.7611 5.65117 13.2126 5.89947 13.5979 5.77532Z" fill="#595961"/>
<path opacity="0.62" fill-rule="evenodd" clip-rule="evenodd" d="M14.0893 5.14105C14.2752 5.00319 14.4474 4.86523 14.6206 4.71356C14.5544 4.75498 14.0095 5.20998 13.2525 4.87903C13.2525 4.87903 13.6904 5.19618 14.0893 5.14105Z" fill="#595961"/>
<path opacity="0.62" fill-rule="evenodd" clip-rule="evenodd" d="M14.8065 4.68577C15.0323 4.61684 15.2454 4.5341 15.4575 4.45136C15.3778 4.47888 14.7004 4.72709 14.0359 4.20306C14.0495 4.20306 14.3949 4.61684 14.8065 4.68577Z" fill="#595961"/>
<path opacity="0.62" fill-rule="evenodd" clip-rule="evenodd" d="M15.4575 4.4378C15.6434 4.46541 15.8293 4.47922 16.0151 4.49302C15.9489 4.47922 15.3641 4.43781 15.0323 3.88617C15.0323 3.88617 15.1656 4.25853 15.4575 4.4378Z" fill="#595961"/>
<path opacity="0.62" fill-rule="evenodd" clip-rule="evenodd" d="M16.2282 4.74091C16.3606 4.89267 16.5074 5.04434 16.6661 5.18221C16.6135 5.12708 16.162 4.67198 16.2681 4.10663C16.2545 4.10663 16.1085 4.42377 16.2282 4.74091Z" fill="#595961"/>
<path opacity="0.74" fill-rule="evenodd" clip-rule="evenodd" d="M17.8357 8.80929C17.8357 8.65753 17.6897 5.16861 16.2418 4.10683C15.9625 3.89995 15.657 3.80341 15.3378 3.80341C15.0985 3.80341 14.8464 3.85853 14.5808 3.96888C13.4248 4.42397 12.6143 5.65131 12.2162 7.52674C11.9107 8.93335 11.9506 10.1883 11.9506 10.2434C11.9506 10.2848 11.9905 10.3262 12.0304 10.3262H12.043C12.0829 10.3262 12.1102 10.2986 12.1102 10.2572C12.1102 10.2021 11.9769 5.1686 14.6469 4.09303C15.2317 3.85853 15.7368 3.89995 16.162 4.21709C17.5428 5.22382 17.6897 8.74036 17.6897 8.78168C17.6897 8.82309 17.7296 8.86441 17.7695 8.86441C17.7695 8.86441 17.7695 8.86441 17.7822 8.86441C17.8094 8.87822 17.8357 8.85061 17.8357 8.80929Z" fill="url(#paint0_linear_1_359)"/>
<path fill-rule="evenodd" clip-rule="evenodd" d="M18.0614 7.0856C17.7559 5.59625 17.2509 4.58952 16.5473 4.06549C16.162 3.78976 15.7495 3.66561 15.298 3.69322C15.657 3.72074 15.9889 3.84489 16.2944 4.06549C16.9989 4.57581 17.5039 5.59625 17.8094 7.0856C18.0216 8.13366 18.0614 9.04376 18.0614 9.08518C18.0614 9.25065 17.9817 9.3748 17.8484 9.41612C17.8756 9.42993 17.9019 9.42993 17.9155 9.42993C18.1413 9.45754 18.3135 9.30578 18.3008 9.08518C18.3135 9.04376 18.2736 8.14746 18.0614 7.0856Z" fill="url(#paint1_linear_1_359)"/>
<path fill-rule="evenodd" clip-rule="evenodd" d="M14.7141 4.64468C12.2162 5.65132 12.3359 10.4917 12.3359 10.5469C12.3359 10.7123 12.2561 10.8365 12.1228 10.8778C12.15 10.8916 12.1628 10.8916 12.19 10.8916C12.2027 10.8916 12.2298 10.8916 12.2425 10.8916C12.442 10.8916 12.5743 10.7399 12.5743 10.5469C12.5743 10.4917 12.4556 5.66513 14.9525 4.65848C15.1257 4.58955 15.2852 4.54814 15.4312 4.53433C15.2181 4.49301 14.9797 4.53433 14.7141 4.64468Z" fill="url(#paint2_linear_1_359)"/>
<path fill-rule="evenodd" clip-rule="evenodd" d="M18.4994 5.84428L7.23425 9.45726C7.23425 9.45726 6.75644 9.59522 6.63676 9.74689C6.51709 9.89856 6.49078 10.326 6.49078 10.326L4.74997 24.2542L17.8221 26.7916L18.8321 5.83048C18.6862 5.80287 18.5393 5.83048 18.4994 5.84428Z" fill="url(#paint3_linear_1_359)"/>
<path fill-rule="evenodd" clip-rule="evenodd" d="M22.3926 7.637C22.3926 7.637 22.379 7.52665 22.3128 7.48533C22.2593 7.44391 22.1931 7.44392 22.1931 7.44392L20.3462 7.30605L18.9917 5.91324C18.9382 5.87183 18.8847 5.84431 18.8185 5.83051L17.8094 26.7917L24.8895 25.2058L22.3926 7.637Z" fill="url(#paint4_linear_1_359)"/>
<path fill-rule="evenodd" clip-rule="evenodd" d="M13.85 17.4832C13.6506 17.2074 13.4121 16.9592 13.1728 16.7385C12.9334 16.5179 12.6814 16.3386 12.4284 16.1731C12.2561 16.0628 12.0966 15.9524 11.9633 15.8421C11.8309 15.7318 11.7248 15.6215 11.645 15.5249C11.5653 15.4146 11.4991 15.318 11.4592 15.2078C11.4193 15.0974 11.4057 14.9871 11.4057 14.8767C11.4057 14.7251 11.4456 14.5734 11.4991 14.4493C11.5517 14.3252 11.645 14.2149 11.7375 14.1183C11.8445 14.0218 11.9633 13.9528 12.1102 13.8977C12.2561 13.8425 12.4284 13.815 12.6142 13.8012C12.8137 13.7874 13.0132 13.8012 13.199 13.815C13.3849 13.8287 13.5581 13.8701 13.7303 13.9114C13.8899 13.9528 14.0495 14.008 14.1818 14.0632C14.3151 14.1183 14.4475 14.1734 14.5409 14.2287L15.4176 11.5258C15.2853 11.4568 15.1257 11.3878 14.9525 11.3465C14.7667 11.2913 14.5672 11.25 14.3414 11.2224C14.1157 11.1948 13.8763 11.181 13.6243 11.181C13.3722 11.181 13.1066 11.1948 12.8273 11.2362C12.2299 11.3189 11.6976 11.4844 11.2198 11.7326C10.7683 11.9671 10.3694 12.2704 10.0375 12.6428C9.7184 13.0013 9.46633 13.415 9.28047 13.8839C9.1073 14.339 9.00124 14.8492 8.97495 15.4008C8.96135 15.7318 8.98763 16.0352 9.06742 16.311C9.1336 16.5868 9.24058 16.8488 9.38655 17.097C9.51892 17.3452 9.69209 17.5659 9.87795 17.7727C10.0638 17.9796 10.2896 18.1727 10.5153 18.352C10.7012 18.4898 10.8608 18.6277 10.9941 18.7518C11.1264 18.876 11.2334 19 11.3123 19.138C11.3921 19.2621 11.4456 19.3862 11.4855 19.5241C11.5253 19.6482 11.539 19.7861 11.5254 19.924C11.5254 20.0619 11.4855 20.1998 11.432 20.3101C11.3794 20.4205 11.3123 20.5308 11.2062 20.6135C11.1137 20.6963 10.9941 20.7514 10.8608 20.779C10.7284 20.8065 10.5689 20.8203 10.3957 20.7928C10.1971 20.7652 9.99763 20.7101 9.81177 20.6273C9.6259 20.5583 9.43918 20.4618 9.26691 20.3652C9.09465 20.2688 8.93508 20.1584 8.8018 20.0619C8.65583 19.9654 8.53613 19.855 8.44365 19.7723L7.84523 21.8271C7.93862 21.9649 8.07102 22.0891 8.21699 22.2132C8.36387 22.3373 8.53615 22.4614 8.73561 22.5855C8.93508 22.6959 9.14724 22.8061 9.37299 22.9026C9.59875 22.9992 9.85168 23.0819 10.1037 23.151H10.1173H10.13H10.1436H10.1572C10.7012 23.275 11.2198 23.3026 11.7112 23.2337C12.2162 23.1647 12.6813 22.9854 13.0793 22.7097C13.491 22.42 13.8237 22.0339 14.0758 21.5236C14.3287 21.0134 14.4747 20.3929 14.501 19.6895C14.5146 19.2483 14.4611 18.8622 14.3414 18.5036C14.2218 18.0899 14.0495 17.7727 13.85 17.4832Z" fill="url(#paint5_linear_1_359)"/>
<path opacity="0.41" fill-rule="evenodd" clip-rule="evenodd" d="M20.7977 22.8892L20.3462 7.30616L20.2664 7.22343L20.4795 22.6685C20.4795 22.6685 18.6063 25.6196 18.3271 25.5368C17.9154 25.4128 19.1376 6.06502 19.1376 6.06502L19.0043 5.92716C18.9518 5.88575 18.8847 5.85823 18.8321 5.84442L17.8357 26.5159L17.8221 26.8056L18.1675 26.3505L20.7977 22.8892Z" fill="url(#paint6_linear_1_359)"/>
<path fill-rule="evenodd" clip-rule="evenodd" d="M15.7095 6.74078C15.5509 7.38887 15.3514 7.99564 15.2055 8.368C15.1121 8.58869 15.2182 8.79548 15.4176 8.82309C15.6307 8.8507 15.8691 8.69894 15.9489 8.47834C15.9625 8.43693 16.3206 7.54063 16.5473 6.47877V6.46497L15.7095 6.74078Z" fill="url(#paint7_linear_1_359)"/>
<path fill-rule="evenodd" clip-rule="evenodd" d="M9.71847 8.6713C9.53261 9.08498 9.34674 9.44354 9.21346 9.69175C9.09469 9.89863 9.16086 10.1192 9.36033 10.1744C9.55889 10.2434 9.82452 10.1192 9.9442 9.91235C9.9578 9.88483 10.3432 9.20913 10.6886 8.35406L9.71847 8.6713Z" fill="url(#paint8_linear_1_359)"/>
<path opacity="0.32" fill-rule="evenodd" clip-rule="evenodd" d="M17.8221 26.7916L20.7977 22.8889L24.9166 25.2057L17.8221 26.7916Z" fill="url(#paint9_linear_1_359)"/>
<path opacity="0.19" fill-rule="evenodd" clip-rule="evenodd" d="M17.8221 26.7916L20.7714 22.8889L24.9166 25.2057L17.8221 26.7916Z" fill="url(#paint10_linear_1_359)"/>
<path opacity="0.19" fill-rule="evenodd" clip-rule="evenodd" d="M17.8221 26.7916L20.7714 22.8889L24.9166 25.2057L17.8221 26.7916Z" fill="url(#paint11_linear_1_359)"/>
<path fill-rule="evenodd" clip-rule="evenodd" d="M22.3253 7.49915C22.3924 7.55437 22.3925 7.63711 22.3925 7.63711L24.8631 25.192L20.7976 22.8753L20.3461 7.29236L22.1667 7.43022C22.1794 7.44403 22.2592 7.44403 22.3253 7.49915Z" fill="url(#paint12_linear_1_359)"/>
<path fill-rule="evenodd" clip-rule="evenodd" d="M22.0336 7.54073C22.0336 7.54073 22.1133 7.54073 22.1795 7.60966C22.2457 7.66488 22.2593 7.74762 22.2593 7.74762L24.6909 25.1095L24.8768 25.2198L22.4053 7.65108C22.4053 7.65108 22.3926 7.56834 22.3391 7.51321C22.2729 7.45799 22.1795 7.458 22.1795 7.458L20.3599 7.32013L22.0336 7.54073Z" fill="url(#paint13_linear_1_359)"/>
<path opacity="0.3" fill-rule="evenodd" clip-rule="evenodd" d="M9.04111 9.65821C8.92233 9.9934 9.03927 10.3455 9.30402 10.445C9.56785 10.5443 9.87794 10.3532 9.99762 10.0181C10.1164 9.68303 9.99855 9.33078 9.73471 9.23145C9.47087 9.13202 9.15988 9.32311 9.04111 9.65821Z" fill="white"/>
<path opacity="0.89" fill-rule="evenodd" clip-rule="evenodd" d="M9.0267 9.49918C8.90793 9.83428 9.02577 10.1865 9.28961 10.2859C9.55344 10.3853 9.86444 10.1942 9.98321 9.85909C10.102 9.52391 9.98505 9.17167 9.7203 9.07233C9.45647 8.9729 9.14638 9.164 9.0267 9.49918Z" fill="#22292F"/>
<path fill-rule="evenodd" clip-rule="evenodd" d="M20.3598 7.30605L19.0043 5.91324C18.9518 5.87183 18.8847 5.84431 18.8321 5.83051L17.8221 26.7917L20.8113 22.8752L20.3598 7.30605Z" fill="url(#paint14_linear_1_359)"/>
<path fill-rule="evenodd" clip-rule="evenodd" d="M18.4994 5.84457L7.23423 9.45755C7.23423 9.45755 6.75643 9.5955 6.63675 9.74717C6.62315 9.76098 6.62311 9.77478 6.61041 9.78859L9.24061 9.03006L18.2872 6.12038C18.3271 6.10658 18.4731 6.07897 18.6191 6.10658L17.6227 26.7643L17.8094 26.8057L18.8185 5.84457C18.6861 5.80315 18.5393 5.83076 18.4994 5.84457Z" fill="url(#paint15_linear_1_359)"/>
<path opacity="0.32" fill-rule="evenodd" clip-rule="evenodd" d="M21.3962 23.22L20.7977 22.8752L17.8094 26.7917L17.9681 26.7502C17.9681 26.7502 20.5992 23.2338 20.8376 23.1235C21.0108 23.0545 21.3962 23.22 21.3962 23.22Z" fill="url(#paint16_linear_1_359)"/>
<path opacity="0.57" fill-rule="evenodd" clip-rule="evenodd" d="M17.8221 26.7917L20.8113 22.8752C20.7977 22.889 18.9118 25.0265 17.8221 26.7917Z" fill="url(#paint17_linear_1_359)"/>
<path opacity="0.46" fill-rule="evenodd" clip-rule="evenodd" d="M24.9166 25.2057L20.8112 22.8889C20.7976 22.8889 21.2764 22.9717 24.9166 25.2057Z" fill="url(#paint18_linear_1_359)"/>
<path opacity="0.3" fill-rule="evenodd" clip-rule="evenodd" d="M15.1148 8.28318C14.9951 8.61837 15.113 8.97061 15.3769 9.07003C15.6416 9.16946 15.9517 8.97837 16.0705 8.64327C16.1901 8.30808 16.0723 7.95584 15.8084 7.85641C15.5446 7.75708 15.2336 7.94808 15.1148 8.28318Z" fill="white"/>
<path opacity="0.89" fill-rule="evenodd" clip-rule="evenodd" d="M15.1003 8.12476C14.9816 8.45995 15.0995 8.81219 15.3633 8.91162C15.6271 9.01096 15.9381 8.81995 16.0568 8.48476C16.1756 8.14967 16.0587 7.79743 15.7948 7.698C15.5301 7.59857 15.22 7.78967 15.1003 8.12476Z" fill="#22292F"/>
<path fill-rule="evenodd" clip-rule="evenodd" d="M9.50625 10.1746C9.49265 10.1746 9.46634 10.1746 9.45274 10.1746C9.24058 10.147 9.09464 9.94016 9.12093 9.70575C9.14723 9.48506 9.90425 4.32751 13.0132 3.15539C13.7965 2.86577 14.4611 2.9209 14.9661 3.34848C15.5772 3.8587 15.909 4.87915 15.9625 6.3685C16.0024 7.41656 15.8828 8.32666 15.8828 8.36807C15.8565 8.58867 15.657 8.75424 15.4439 8.71282C15.2318 8.68521 15.0722 8.47842 15.1121 8.25773C15.2317 7.32002 15.3641 4.74129 14.4747 3.99657C14.1954 3.76216 13.8102 3.73455 13.2925 3.92763C10.6224 4.93428 9.91785 9.77468 9.91785 9.81601C9.86436 10.0229 9.70571 10.1746 9.50625 10.1746Z" fill="#595961"/>
<path opacity="0.46" fill-rule="evenodd" clip-rule="evenodd" d="M14.8065 3.37592C14.3414 2.98984 13.7304 2.93472 12.9996 3.19673C11.7375 3.67935 10.6749 4.94801 9.94413 6.86484C9.40013 8.28526 9.21339 9.56772 9.21339 9.62294C9.2007 9.69187 9.22701 9.76081 9.2669 9.81602C9.3068 9.87115 9.36026 9.91256 9.42644 9.91256C9.43914 9.91256 9.45274 9.91256 9.46634 9.91256C9.58602 9.91256 9.69208 9.81602 9.70568 9.69187C9.71837 9.63675 10.4229 4.7136 13.1727 3.67935C13.7303 3.47246 14.1818 3.50007 14.501 3.77589C15.4439 4.56193 15.3115 7.2234 15.1919 8.17491C15.1783 8.31287 15.2717 8.45073 15.404 8.46454C15.5373 8.47834 15.6697 8.3818 15.6833 8.24394C15.6969 8.09218 16.162 4.5068 14.8065 3.37592Z" fill="#B0BFC9"/>
<path opacity="0.81" fill-rule="evenodd" clip-rule="evenodd" d="M9.45281 9.76084C9.43921 9.76084 9.43922 9.76084 9.42653 9.76084C9.34674 9.74704 9.29323 9.6643 9.30683 9.58157C9.32043 9.52635 9.49272 8.2715 10.0376 6.85108C10.7684 4.96185 11.8047 3.70691 13.0395 3.238C13.744 2.97599 14.3152 3.03121 14.7531 3.38976C16.0551 4.47915 15.6035 8.00948 15.5773 8.16115C15.5637 8.24389 15.4975 8.29901 15.4041 8.2853C15.3252 8.2715 15.2717 8.20256 15.2717 8.10602C15.2717 8.06461 15.7232 4.60329 14.5546 3.61036C14.2091 3.34835 13.7304 3.32083 13.1465 3.54143C10.3432 4.60329 9.6124 9.58157 9.6124 9.63669C9.5988 9.70563 9.5326 9.76084 9.45281 9.76084Z" fill="#B0BFC9"/>
<path opacity="0.42" fill-rule="evenodd" clip-rule="evenodd" d="M11.2062 5.81672C11.3522 5.60992 11.4855 5.40303 11.6178 5.18243C11.5652 5.25137 11.1799 5.96848 10.383 5.85813C10.3694 5.85813 10.8345 6.0098 11.2062 5.81672Z" fill="#595961"/>
<path opacity="0.42" fill-rule="evenodd" clip-rule="evenodd" d="M10.7548 6.69914C10.8744 6.47844 10.9941 6.24404 11.0866 6.02344C11.0467 6.10617 10.781 6.8508 9.94418 6.8508C9.94418 6.8508 10.4093 6.94735 10.7548 6.69914Z" fill="#595961"/>
<path opacity="0.42" fill-rule="evenodd" clip-rule="evenodd" d="M10.4093 7.60962C10.5154 7.37512 10.5952 7.14072 10.675 6.90631C10.6351 6.98905 10.4891 7.74748 9.6124 7.84402C9.6124 7.83022 10.0902 7.88544 10.4093 7.60962Z" fill="#595961"/>
<path opacity="0.62" fill-rule="evenodd" clip-rule="evenodd" d="M15.7231 4.92037C15.6569 4.67207 15.5907 4.43766 15.4973 4.18945C15.5236 4.27219 15.7893 5.05823 15.2453 5.62359C15.2453 5.62359 15.6433 5.34785 15.7231 4.92037Z" fill="#595961"/>
<path opacity="0.62" fill-rule="evenodd" clip-rule="evenodd" d="M15.2055 3.67922C15.0197 3.49994 14.8329 3.33447 14.647 3.1828C14.7141 3.25173 15.3379 3.76196 15.1656 4.53419C15.152 4.53419 15.3515 4.0791 15.2055 3.67922Z" fill="#595961"/>
<path opacity="0.62" fill-rule="evenodd" clip-rule="evenodd" d="M15.8564 6.18913C15.8428 5.94092 15.8029 5.6789 15.7631 5.4306C15.7631 5.52714 15.8963 6.34079 15.258 6.78209C15.258 6.78209 15.6968 6.589 15.8564 6.18913Z" fill="#595961"/>
<path opacity="0.62" fill-rule="evenodd" clip-rule="evenodd" d="M15.9226 7.48548C15.9362 7.23727 15.9362 6.97526 15.9226 6.72705C15.9226 6.82359 15.9362 7.63725 15.258 8.00952C15.258 7.9958 15.7232 7.85784 15.9226 7.48548Z" fill="#595961"/>
<path opacity="0.42" fill-rule="evenodd" clip-rule="evenodd" d="M10.1037 8.61611C10.1835 8.3679 10.237 8.11969 10.2896 7.88519C10.2633 7.96793 10.1436 8.75397 9.33304 8.94705C9.34664 8.94705 9.82442 8.93325 10.1037 8.61611Z" fill="#595961"/>
<path opacity="0.42" fill-rule="evenodd" clip-rule="evenodd" d="M11.7113 5.05804C11.8972 4.89256 12.0703 4.71328 12.2299 4.5202C12.1628 4.57533 11.6315 5.14077 10.888 4.93389C10.9007 4.93389 11.3124 5.18219 11.7113 5.05804Z" fill="#595961"/>
<path opacity="0.42" fill-rule="evenodd" clip-rule="evenodd" d="M12.3087 4.42401C12.5217 4.28614 12.7212 4.14819 12.9198 3.99652C12.8409 4.03793 12.2298 4.49294 11.5253 4.16199C11.5253 4.16199 11.897 4.47914 12.3087 4.42401Z" fill="#595961"/>
<path opacity="0.62" fill-rule="evenodd" clip-rule="evenodd" d="M13.1193 3.96897C13.3586 3.89995 13.5844 3.81721 13.8101 3.73448C13.7304 3.76209 13.0132 4.0103 12.4284 3.48627C12.4284 3.48627 12.7076 3.89995 13.1193 3.96897Z" fill="#595961"/>
<path opacity="0.62" fill-rule="evenodd" clip-rule="evenodd" d="M13.7965 3.72076C13.9833 3.74837 14.1692 3.76218 14.355 3.77598C14.2889 3.76218 13.7176 3.72077 13.4647 3.16913C13.4783 3.16913 13.5445 3.54149 13.7965 3.72076Z" fill="#595961"/>
<path opacity="0.62" fill-rule="evenodd" clip-rule="evenodd" d="M14.5146 4.02396C14.6343 4.17563 14.7531 4.3273 14.8727 4.46525C14.8329 4.41004 14.4611 3.95503 14.647 3.38959C14.6606 3.38959 14.4611 3.70682 14.5146 4.02396Z" fill="#595961"/>
<path fill-rule="evenodd" clip-rule="evenodd" d="M15.4311 8.09216C15.4438 7.94049 15.8963 4.45156 14.6342 3.3897C14.3949 3.18291 14.1029 3.08636 13.7838 3.08636C13.5444 3.08636 13.2788 3.14149 12.9996 3.25184C11.7774 3.70693 10.7547 4.93427 10.0375 6.80969C9.49259 8.21631 9.3203 9.47125 9.3067 9.52638C9.3067 9.5677 9.33305 9.60912 9.37294 9.60912H9.3865C9.42639 9.60912 9.45268 9.58151 9.45268 9.54018C9.46628 9.48496 10.1834 4.45156 13.0394 3.3759C13.6505 3.14149 14.1691 3.18291 14.5408 3.50005C15.7494 4.50669 15.2979 8.02322 15.2852 8.06464C15.2852 8.10596 15.3115 8.14738 15.3514 8.14738C15.3514 8.14738 15.3514 8.14738 15.3641 8.14738C15.404 8.16118 15.4311 8.13357 15.4311 8.09216Z" fill="url(#paint19_linear_1_359)"/>
<path fill-rule="evenodd" clip-rule="evenodd" d="M13.0268 3.92752C10.3567 4.93416 9.65227 9.77457 9.65227 9.8297C9.62598 9.99517 9.51897 10.1193 9.3866 10.1606C9.41289 10.1745 9.42649 10.1744 9.45278 10.1744C9.46638 10.1744 9.49269 10.1744 9.50629 10.1744C9.70576 10.1744 9.86441 10.0228 9.89161 9.8297C9.9043 9.77457 10.5952 4.94797 13.2653 3.94123C13.452 3.8723 13.6107 3.83098 13.7576 3.81717C13.5581 3.78957 13.3052 3.83098 13.0268 3.92752Z" fill="url(#paint20_linear_1_359)"/>
<defs>
<linearGradient id="paint0_linear_1_359" x1="12.6432" y1="3.83453" x2="12.2266" y2="9.50703" gradientUnits="userSpaceOnUse">
<stop stop-color="white" stop-opacity="0.65"/>
<stop offset="1" stop-color="white" stop-opacity="0.01"/>
</linearGradient>
<linearGradient id="paint1_linear_1_359" x1="15.6879" y1="7.08145" x2="18.6212" y2="9.65069" gradientUnits="userSpaceOnUse">
<stop stop-opacity="0.01"/>
<stop offset="1" stop-opacity="0.4"/>
</linearGradient>
<linearGradient id="paint2_linear_1_359" x1="14.5119" y1="10.0536" x2="17.6167" y2="7.16162" gradientUnits="userSpaceOnUse">
<stop stop-opacity="0.01"/>
<stop offset="1" stop-opacity="0.4"/>
</linearGradient>
<linearGradient id="paint3_linear_1_359" x1="10.5598" y1="1.61407" x2="-1.4997" y2="15.5093" gradientUnits="userSpaceOnUse">
<stop stop-color="#B8D26E"/>
<stop offset="1" stop-color="#7FB525"/>
</linearGradient>
<linearGradient id="paint4_linear_1_359" x1="27.0564" y1="5.09282" x2="20.4378" y2="5.21573" gradientUnits="userSpaceOnUse">
<stop stop-color="#B4E034"/>
<stop offset="1" stop-color="#60A927"/>
</linearGradient>
<linearGradient id="paint5_linear_1_359" x1="7.37014" y1="14.3581" x2="1.94385" y2="27.5722" gradientUnits="userSpaceOnUse">
<stop stop-color="white"/>
<stop offset="1" stop-color="#CECEEB"/>
</linearGradient>
<linearGradient id="paint6_linear_1_359" x1="15.1502" y1="46.9005" x2="23.7443" y2="46.8831" gradientUnits="userSpaceOnUse">
<stop stop-color="#1D1D1B" stop-opacity="0.5"/>
<stop offset="0.038033" stop-color="#1D1D1B" stop-opacity="0.4837"/>
<stop offset="0.4243" stop-color="#1D1D1B" stop-opacity="0.3185"/>
<stop offset="1" stop-color="#1D1D1B" stop-opacity="0.01"/>
</linearGradient>
<linearGradient id="paint7_linear_1_359" x1="16.1484" y1="5.53944" x2="14.7226" y2="6.30678" gradientUnits="userSpaceOnUse">
<stop stop-opacity="0.01"/>
<stop offset="1" stop-opacity="0.4"/>
</linearGradient>
<linearGradient id="paint8_linear_1_359" x1="10.1709" y1="7.81533" x2="9.16865" y2="8.67667" gradientUnits="userSpaceOnUse">
<stop stop-opacity="0.01"/>
<stop offset="1" stop-opacity="0.4"/>
</linearGradient>
<linearGradient id="paint9_linear_1_359" x1="19.9473" y1="25.216" x2="20.0487" y2="26.5536" gradientUnits="userSpaceOnUse">
<stop stop-opacity="0.01"/>
<stop offset="1" stop-opacity="0.4"/>
</linearGradient>
<linearGradient id="paint10_linear_1_359" x1="17.5782" y1="23.2578" x2="17.8134" y2="26.7355" gradientUnits="userSpaceOnUse">
<stop stop-color="white" stop-opacity="0.5"/>
<stop offset="0.0896271" stop-color="white" stop-opacity="0.4552"/>
<stop offset="1" stop-color="white" stop-opacity="0.01"/>
</linearGradient>
<linearGradient id="paint11_linear_1_359" x1="17.1257" y1="23.7987" x2="17.5442" y2="27.5136" gradientUnits="userSpaceOnUse">
<stop stop-opacity="0.01"/>
<stop offset="1" stop-opacity="0.4"/>
</linearGradient>
<linearGradient id="paint12_linear_1_359" x1="17.5545" y1="34.8662" x2="27.0272" y2="34.8853" gradientUnits="userSpaceOnUse">
<stop stop-color="#1D1D1B" stop-opacity="0.5"/>
<stop offset="0.0896271" stop-color="#1D1D1B" stop-opacity="0.4552"/>
<stop offset="1" stop-color="#1D1D1B" stop-opacity="0.01"/>
</linearGradient>
<linearGradient id="paint13_linear_1_359" x1="24.3383" y1="6.79754" x2="22.9926" y2="7.12726" gradientUnits="userSpaceOnUse">
<stop stop-color="white" stop-opacity="0.4"/>
<stop offset="1" stop-color="white" stop-opacity="0.01"/>
</linearGradient>
<linearGradient id="paint14_linear_1_359" x1="16.3107" y1="46.471" x2="24.9356" y2="46.4784" gradientUnits="userSpaceOnUse">
<stop stop-color="#1D1D1B" stop-opacity="0.5"/>
<stop offset="1" stop-color="#1D1D1B" stop-opacity="0.01"/>
</linearGradient>
<linearGradient id="paint15_linear_1_359" x1="8.42916" y1="4.62932" x2="4.24607" y2="20.7007" gradientUnits="userSpaceOnUse">
<stop stop-color="white" stop-opacity="0.5"/>
<stop offset="1" stop-color="white" stop-opacity="0.01"/>
</linearGradient>
<linearGradient id="paint16_linear_1_359" x1="18.581" y1="21.4762" x2="15.2747" y2="26.027" gradientUnits="userSpaceOnUse">
<stop stop-color="white" stop-opacity="0.5"/>
<stop offset="0.0896271" stop-color="white" stop-opacity="0.4552"/>
<stop offset="1" stop-color="white" stop-opacity="0.01"/>
</linearGradient>
<linearGradient id="paint17_linear_1_359" x1="19.5782" y1="22.5225" x2="19.2509" y2="23.2563" gradientUnits="userSpaceOnUse">
<stop stop-opacity="0.01"/>
<stop offset="1" stop-opacity="0.4"/>
</linearGradient>
<linearGradient id="paint18_linear_1_359" x1="22.8249" y1="23.4927" x2="22.8088" y2="23.6899" gradientUnits="userSpaceOnUse">
<stop stop-opacity="0.01"/>
<stop offset="1" stop-opacity="0.4"/>
</linearGradient>
<linearGradient id="paint19_linear_1_359" x1="10.9187" y1="2.62216" x2="9.48938" y2="8.2688" gradientUnits="userSpaceOnUse">
<stop stop-color="white" stop-opacity="0.65"/>
<stop offset="1" stop-color="white" stop-opacity="0.01"/>
</linearGradient>
<linearGradient id="paint20_linear_1_359" x1="12.5282" y1="9.60206" x2="15.9636" y2="6.07393" gradientUnits="userSpaceOnUse">
<stop stop-opacity="0.01"/>
<stop offset="1" stop-opacity="0.4"/>
</linearGradient>
</defs>
</svg>
