<svg width="30" height="30" viewBox="0 0 30 30" fill="none" xmlns="http://www.w3.org/2000/svg">
<circle cx="14.8333" cy="15.2222" r="12.8333" fill="#1ED760"/>
<path d="M20.6673 20.3766C20.448 20.7245 19.9803 20.8219 19.6149 20.6132C16.7353 18.9433 13.125 18.5676 8.85684 19.486C8.44757 19.5695 8.0383 19.3329 7.9506 18.9433C7.8629 18.5536 8.11138 18.164 8.52066 18.0805C13.1834 17.0647 17.1885 17.496 20.4042 19.3747C20.7696 19.5834 20.8865 20.0287 20.6673 20.3766ZM22.1582 17.2038C21.8805 17.6352 21.2958 17.7604 20.8427 17.51C17.5539 15.5757 12.5403 15.019 8.65221 16.1462C8.14062 16.2854 7.61441 16.021 7.46824 15.5478C7.32207 15.0608 7.59979 14.5598 8.11138 14.4207C12.5549 13.1404 18.0801 13.7527 21.8659 15.9653C22.2898 16.2158 22.4359 16.7724 22.1582 17.2038ZM22.2898 13.8919C18.3432 11.6653 11.8387 11.4566 8.06753 12.542C7.46824 12.7229 6.8251 12.4029 6.63508 11.8184C6.44506 11.2479 6.79587 10.6356 7.39516 10.4547C11.7218 9.20224 18.9133 9.45272 23.4445 12.0132C23.9853 12.3194 24.1607 12.9873 23.8391 13.5022C23.5322 14.031 22.8306 14.2119 22.2898 13.8919Z" fill="white"/>
</svg>
