<svg width="40" height="40" viewBox="0 0 40 40" fill="none" xmlns="http://www.w3.org/2000/svg">
<rect x="0.611145" y="0.777771" width="39.1111" height="39.1111" rx="19.5556" fill="#0BA5EC"/>
<path d="M16.0926 26.037C16.5248 26.037 16.9393 25.8653 17.2449 25.5597C17.5505 25.2541 17.7222 24.8396 17.7222 24.4074C17.7222 23.9752 17.5505 23.5607 17.2449 23.2551C16.9393 22.9495 16.5248 22.7778 16.0926 22.7778C15.6604 22.7778 15.2459 22.9495 14.9403 23.2551C14.6347 23.5607 14.463 23.9752 14.463 24.4074C14.463 24.8396 14.6347 25.2541 14.9403 25.5597C15.2459 25.8653 15.6604 26.037 16.0926 26.037Z" stroke="white" stroke-width="1.83333" stroke-linecap="round" stroke-linejoin="round"/>
<path d="M24.2408 26.037C24.673 26.037 25.0875 25.8653 25.3931 25.5597C25.6987 25.2541 25.8704 24.8396 25.8704 24.4074C25.8704 23.9752 25.6987 23.5607 25.3931 23.2551C25.0875 22.9495 24.673 22.7778 24.2408 22.7778C23.8086 22.7778 23.3941 22.9495 23.0885 23.2551C22.7828 23.5607 22.6111 23.9752 22.6111 24.4074C22.6111 24.8396 22.7828 25.2541 23.0885 25.5597C23.3941 25.8653 23.8086 26.037 24.2408 26.037Z" stroke="white" stroke-width="1.83333" stroke-linecap="round" stroke-linejoin="round"/>
<path d="M20.1667 19.5185V15.4445" stroke="white" stroke-width="1.83333" stroke-linecap="round" stroke-linejoin="round"/>
<path d="M14.463 24.4074H12.8334V19.5185L14.463 15.4445H21.7963L25.0556 19.5185H25.8704C26.3026 19.5185 26.7171 19.6902 27.0227 19.9958C27.3283 20.3015 27.5 20.716 27.5 21.1482V24.4074H25.8704" stroke="white" stroke-width="1.83333" stroke-linecap="round" stroke-linejoin="round"/>
<path d="M22.6111 24.4074H17.7223" stroke="white" stroke-width="1.83333" stroke-linecap="round" stroke-linejoin="round"/>
<path d="M12.8334 19.5186H25.0556" stroke="white" stroke-width="1.83333" stroke-linecap="round" stroke-linejoin="round"/>
</svg>
